<?xml version="1.0" encoding="UTF-8"?><svg xmlns="http://www.w3.org/2000/svg" xmlns:xlink="http://www.w3.org/1999/xlink" fill-opacity="1" color-rendering="auto" color-interpolation="auto" text-rendering="auto" stroke="black" stroke-linecap="square" width="984" stroke-miterlimit="10" shape-rendering="auto" stroke-opacity="1" fill="black" stroke-dasharray="none" font-weight="normal" stroke-width="1" height="227" font-family="'Dialog'" font-style="normal" stroke-linejoin="miter" font-size="12px" stroke-dashoffset="0" image-rendering="auto">
  <!--Generated by ySVG 2.5-->
  <defs id="genericDefs"/>
  <g>
    <defs id="defs1">
      <clipPath clipPathUnits="userSpaceOnUse" id="clipPath1">
        <path d="M0 0 L984 0 L984 227 L0 227 L0 0 Z"/>
      </clipPath>
      <clipPath clipPathUnits="userSpaceOnUse" id="clipPath2">
        <path d="M137 155 L1121 155 L1121 382 L137 382 L137 155 Z"/>
      </clipPath>
    </defs>
    <g fill="white" text-rendering="geometricPrecision" shape-rendering="geometricPrecision" transform="translate(-137,-155)" stroke="white">
      <rect x="137" width="984" height="227" y="155" clip-path="url(#clipPath2)" stroke="none"/>
    </g>
    <g fill="white" text-rendering="geometricPrecision" shape-rendering="geometricPrecision" transform="matrix(1,0,0,1,-137,-155)" stroke="white">
      <rect x="519.3942" width="60" height="40" y="229.24" clip-path="url(#clipPath2)" stroke="none"/>
    </g>
    <g stroke-linecap="butt" transform="matrix(1,0,0,1,-137,-155)" fill="gray" text-rendering="geometricPrecision" shape-rendering="geometricPrecision" stroke="gray" stroke-miterlimit="1.45">
      <rect fill="none" x="519.3942" width="60" height="40" y="229.24" clip-path="url(#clipPath2)"/>
    </g>
    <g font-size="11px" stroke-linecap="butt" transform="matrix(1,0,0,1,-137,-155)" text-rendering="geometricPrecision" font-family="sans-serif" shape-rendering="geometricPrecision" stroke-miterlimit="1.45">
      <text x="538.1222" xml:space="preserve" y="253.5027" clip-path="url(#clipPath2)" stroke="none">gain</text>
    </g>
    <g fill="white" text-rendering="geometricPrecision" shape-rendering="geometricPrecision" transform="matrix(1,0,0,1,-137,-155)" stroke="white">
      <rect x="780.0603" width="60" height="40" y="326.424" clip-path="url(#clipPath2)" stroke="none"/>
    </g>
    <g stroke-linecap="butt" transform="matrix(1,0,0,1,-137,-155)" fill="gray" text-rendering="geometricPrecision" shape-rendering="geometricPrecision" stroke="gray" stroke-miterlimit="1.45">
      <rect fill="none" x="780.0603" width="60" height="40" y="326.424" clip-path="url(#clipPath2)"/>
    </g>
    <g font-size="11px" stroke-linecap="butt" transform="matrix(1,0,0,1,-137,-155)" text-rendering="geometricPrecision" font-family="sans-serif" shape-rendering="geometricPrecision" stroke-miterlimit="1.45">
      <text x="797.9149" xml:space="preserve" y="350.6867" clip-path="url(#clipPath2)" stroke="none">conv</text>
    </g>
    <g fill="white" text-rendering="geometricPrecision" shape-rendering="geometricPrecision" transform="matrix(1,0,0,1,-137,-155)" stroke="white">
      <rect x="599.6162" width="60" height="40" y="229.24" clip-path="url(#clipPath2)" stroke="none"/>
    </g>
    <g stroke-linecap="butt" transform="matrix(1,0,0,1,-137,-155)" fill="gray" text-rendering="geometricPrecision" shape-rendering="geometricPrecision" stroke="gray" stroke-miterlimit="1.45">
      <rect fill="none" x="599.6162" width="60" height="40" y="229.24" clip-path="url(#clipPath2)"/>
    </g>
    <g font-size="11px" stroke-linecap="butt" transform="matrix(1,0,0,1,-137,-155)" text-rendering="geometricPrecision" font-family="sans-serif" shape-rendering="geometricPrecision" stroke-miterlimit="1.45">
      <text x="617.7125" xml:space="preserve" y="253.5027" clip-path="url(#clipPath2)" stroke="none">acnv</text>
    </g>
    <g fill="rgb(255,255,204)" text-rendering="geometricPrecision" shape-rendering="geometricPrecision" transform="matrix(1,0,0,1,-137,-155)" stroke="rgb(255,255,204)">
      <rect x="509.3942" width="80" height="40" y="182.3742" clip-path="url(#clipPath2)" stroke="none"/>
    </g>
    <g stroke-linecap="butt" transform="matrix(1,0,0,1,-137,-155)" fill="gray" text-rendering="geometricPrecision" shape-rendering="geometricPrecision" stroke="gray" stroke-miterlimit="1.45">
      <rect fill="none" x="509.3942" width="80" height="40" y="182.3742" clip-path="url(#clipPath2)"/>
    </g>
    <g font-size="11px" stroke-linecap="butt" transform="matrix(1,0,0,1,-137,-155)" text-rendering="geometricPrecision" font-family="sans-serif" shape-rendering="geometricPrecision" stroke-miterlimit="1.45">
      <text x="521.9723" xml:space="preserve" y="199.1552" clip-path="url(#clipPath2)" stroke="none">c.oa.f.ch: 1</text>
      <text x="521.9723" xml:space="preserve" y="214.1186" clip-path="url(#clipPath2)" stroke="none">a.f: f32/2</text>
    </g>
    <g fill="rgb(255,255,204)" text-rendering="geometricPrecision" shape-rendering="geometricPrecision" transform="matrix(1,0,0,1,-137,-155)" stroke="rgb(255,255,204)">
      <rect x="680.1467" width="80" height="40" y="277.832" clip-path="url(#clipPath2)" stroke="none"/>
    </g>
    <g stroke-linecap="butt" transform="matrix(1,0,0,1,-137,-155)" fill="gray" text-rendering="geometricPrecision" shape-rendering="geometricPrecision" stroke="gray" stroke-miterlimit="1.45">
      <rect fill="none" x="680.1467" width="80" height="40" y="277.832" clip-path="url(#clipPath2)"/>
    </g>
    <g font-size="11px" stroke-linecap="butt" transform="matrix(1,0,0,1,-137,-155)" text-rendering="geometricPrecision" font-family="sans-serif" shape-rendering="geometricPrecision" stroke-miterlimit="1.45">
      <text x="693.7795" xml:space="preserve" y="294.613" clip-path="url(#clipPath2)" stroke="none">oa.f: f32/1</text>
      <text x="693.7795" xml:space="preserve" y="309.5764" clip-path="url(#clipPath2)" stroke="none">oa.cf.f: i16</text>
    </g>
    <g fill="rgb(255,255,204)" text-rendering="geometricPrecision" shape-rendering="geometricPrecision" transform="matrix(1,0,0,1,-137,-155)" stroke="rgb(255,255,204)">
      <rect x="679.8382" width="80" height="40" y="229.24" clip-path="url(#clipPath2)" stroke="none"/>
    </g>
    <g stroke-linecap="butt" transform="matrix(1,0,0,1,-137,-155)" fill="gray" text-rendering="geometricPrecision" shape-rendering="geometricPrecision" stroke="gray" stroke-miterlimit="1.45">
      <rect fill="none" x="679.8382" width="80" height="40" y="229.24" clip-path="url(#clipPath2)"/>
    </g>
    <g font-size="11px" stroke-linecap="butt" transform="matrix(1,0,0,1,-137,-155)" text-rendering="geometricPrecision" font-family="sans-serif" shape-rendering="geometricPrecision" stroke-miterlimit="1.45">
      <text x="693.8116" xml:space="preserve" y="253.5027" clip-path="url(#clipPath2)" stroke="none">oa.f: f32/1</text>
    </g>
    <g fill="rgb(255,255,204)" text-rendering="geometricPrecision" shape-rendering="geometricPrecision" transform="matrix(1,0,0,1,-137,-155)" stroke="rgb(255,255,204)">
      <rect x="152.0049" width="80" height="40" y="181.5742" clip-path="url(#clipPath2)" stroke="none"/>
    </g>
    <g stroke-linecap="butt" transform="matrix(1,0,0,1,-137,-155)" fill="gray" text-rendering="geometricPrecision" shape-rendering="geometricPrecision" stroke="gray" stroke-miterlimit="1.45">
      <rect fill="none" x="152.0049" width="80" height="40" y="181.5742" clip-path="url(#clipPath2)"/>
    </g>
    <g font-size="11px" stroke-linecap="butt" transform="matrix(1,0,0,1,-137,-155)" text-rendering="geometricPrecision" font-family="sans-serif" shape-rendering="geometricPrecision" stroke-miterlimit="1.45">
      <text x="164.583" xml:space="preserve" y="205.8369" clip-path="url(#clipPath2)" stroke="none">c.oa.f.ch: 1</text>
    </g>
    <g fill="white" text-rendering="geometricPrecision" shape-rendering="geometricPrecision" transform="matrix(1,0,0,1,-137,-155)" stroke="white">
      <rect x="162.0049" width="60" height="40" y="229.24" clip-path="url(#clipPath2)" stroke="none"/>
    </g>
    <g stroke-linecap="butt" transform="matrix(1,0,0,1,-137,-155)" fill="gray" text-rendering="geometricPrecision" shape-rendering="geometricPrecision" stroke="gray" stroke-miterlimit="1.45">
      <rect fill="none" x="162.0049" width="60" height="40" y="229.24" clip-path="url(#clipPath2)"/>
    </g>
    <g font-size="11px" stroke-linecap="butt" transform="matrix(1,0,0,1,-137,-155)" text-rendering="geometricPrecision" font-family="sans-serif" shape-rendering="geometricPrecision" stroke-miterlimit="1.45">
      <text x="180.6121" xml:space="preserve" y="253.5027" clip-path="url(#clipPath2)" stroke="none">user</text>
    </g>
    <g fill="rgb(255,255,204)" text-rendering="geometricPrecision" shape-rendering="geometricPrecision" transform="matrix(1,0,0,1,-137,-155)" stroke="rgb(255,255,204)">
      <rect x="680.1467" width="80" height="40" y="326.424" clip-path="url(#clipPath2)" stroke="none"/>
    </g>
    <g stroke-linecap="butt" transform="matrix(1,0,0,1,-137,-155)" fill="gray" text-rendering="geometricPrecision" shape-rendering="geometricPrecision" stroke="gray" stroke-miterlimit="1.45">
      <rect fill="none" x="680.1467" width="80" height="40" y="326.424" clip-path="url(#clipPath2)"/>
    </g>
    <g font-size="11px" stroke-linecap="butt" transform="matrix(1,0,0,1,-137,-155)" text-rendering="geometricPrecision" font-family="sans-serif" shape-rendering="geometricPrecision" stroke-miterlimit="1.45">
      <text x="694.5925" xml:space="preserve" y="350.6867" clip-path="url(#clipPath2)" stroke="none">oa.f: i16/1</text>
    </g>
    <g stroke-linecap="butt" transform="matrix(1,0,0,1,-137,-155)" fill="gray" text-rendering="geometricPrecision" shape-rendering="geometricPrecision" stroke="gray" stroke-miterlimit="1.45">
      <path fill="none" d="M579.3599 249.24 L591.6293 249.24" clip-path="url(#clipPath2)"/>
    </g>
    <g stroke-linecap="butt" transform="matrix(1,0,0,1,-137,-155)" fill="gray" text-rendering="geometricPrecision" shape-rendering="geometricPrecision" stroke="gray" stroke-miterlimit="1.45">
      <path d="M599.6293 249.24 L587.6293 244.24 L590.6293 249.24 L587.6293 254.24 Z" stroke="none" clip-path="url(#clipPath2)"/>
      <path fill="none" d="M680.1519 297.832 L611.152 297.832 L611.152 277.2375" clip-path="url(#clipPath2)"/>
      <path d="M611.152 269.2375 L606.152 281.2375 L611.152 278.2375 L616.152 281.2375 Z" clip-path="url(#clipPath2)" stroke="none"/>
      <path fill="none" d="M659.6168 249.24 L679.8181 249.24" clip-path="url(#clipPath2)"/>
      <text x="666.2971" y="239.8134" clip-path="url(#clipPath2)" fill="black" font-family="sans-serif" stroke="none" xml:space="preserve">1</text>
      <path fill="none" d="M643.9522 269.2178 L643.9522 346.424 L680.152 346.424" clip-path="url(#clipPath2)"/>
      <text x="648.4581" y="283.9409" clip-path="url(#clipPath2)" fill="black" font-family="sans-serif" stroke="none" xml:space="preserve">3</text>
      <path fill="none" d="M760.1566 346.424 L772.053 346.424" clip-path="url(#clipPath2)"/>
      <path d="M780.053 346.424 L768.053 341.424 L771.053 346.424 L768.053 351.424 Z" clip-path="url(#clipPath2)" stroke="none"/>
    </g>
    <g fill="rgb(104,176,227)" text-rendering="geometricPrecision" shape-rendering="geometricPrecision" transform="matrix(1,0,0,1,-137,-155)" stroke="rgb(104,176,227)">
      <path d="M855.0602 171.7726 L855.0602 311.424 L1105.5043 311.424 L1105.5043 171.7726 ZM856.0602 193.7726 L856.0602 310.424 L1104.5043 310.424 L1104.5043 193.7726 Z" fill-rule="evenodd" clip-path="url(#clipPath2)" stroke="none"/>
    </g>
    <g stroke-linecap="butt" font-size="11px" transform="matrix(1,0,0,1,-137,-155)" fill="white" text-rendering="geometricPrecision" font-family="sans-serif" shape-rendering="geometricPrecision" stroke="white" stroke-miterlimit="1.45">
      <text x="857.0602" xml:space="preserve" y="185.517" clip-path="url(#clipPath2)" stroke="none">Output</text>
    </g>
    <g fill="white" text-rendering="geometricPrecision" shape-rendering="geometricPrecision" transform="matrix(1,0,0,1,-137,-155)" stroke="white">
      <rect x="870.0603" width="60" height="40" y="205.736" clip-path="url(#clipPath2)" stroke="none"/>
    </g>
    <g stroke-linecap="butt" transform="matrix(1,0,0,1,-137,-155)" fill="gray" text-rendering="geometricPrecision" shape-rendering="geometricPrecision" stroke="gray" stroke-miterlimit="1.45">
      <rect fill="none" x="870.0603" width="60" height="40" y="205.736" clip-path="url(#clipPath2)"/>
    </g>
    <g font-size="11px" stroke-linecap="butt" transform="matrix(1,0,0,1,-137,-155)" text-rendering="geometricPrecision" font-family="sans-serif" shape-rendering="geometricPrecision" stroke-miterlimit="1.45">
      <text x="887.8489" xml:space="preserve" y="229.9987" clip-path="url(#clipPath2)" stroke="none">aenc</text>
    </g>
    <g fill="white" text-rendering="geometricPrecision" shape-rendering="geometricPrecision" transform="matrix(1,0,0,1,-137,-155)" stroke="white">
      <rect x="950.2823" width="60" height="40" y="205.736" clip-path="url(#clipPath2)" stroke="none"/>
    </g>
    <g stroke-linecap="butt" transform="matrix(1,0,0,1,-137,-155)" fill="gray" text-rendering="geometricPrecision" shape-rendering="geometricPrecision" stroke="gray" stroke-miterlimit="1.45">
      <rect fill="none" x="950.2823" width="60" height="40" y="205.736" clip-path="url(#clipPath2)"/>
    </g>
    <g font-size="11px" stroke-linecap="butt" transform="matrix(1,0,0,1,-137,-155)" text-rendering="geometricPrecision" font-family="sans-serif" shape-rendering="geometricPrecision" stroke-miterlimit="1.45">
      <text x="967.9501" xml:space="preserve" y="229.9987" clip-path="url(#clipPath2)" stroke="none">ofmt</text>
    </g>
    <g fill="white" text-rendering="geometricPrecision" shape-rendering="geometricPrecision" transform="matrix(1,0,0,1,-137,-155)" stroke="white">
      <rect x="1030.5043" width="60" height="40" y="205.736" clip-path="url(#clipPath2)" stroke="none"/>
    </g>
    <g stroke-linecap="butt" transform="matrix(1,0,0,1,-137,-155)" fill="gray" text-rendering="geometricPrecision" shape-rendering="geometricPrecision" stroke="gray" stroke-miterlimit="1.45">
      <rect fill="none" x="1030.5043" width="60" height="40" y="205.736" clip-path="url(#clipPath2)"/>
    </g>
    <g font-size="11px" stroke-linecap="butt" transform="matrix(1,0,0,1,-137,-155)" text-rendering="geometricPrecision" font-family="sans-serif" shape-rendering="geometricPrecision" stroke-miterlimit="1.45">
      <text x="1051.8031" xml:space="preserve" y="229.9987" clip-path="url(#clipPath2)" stroke="none">out</text>
    </g>
    <g fill="white" text-rendering="geometricPrecision" shape-rendering="geometricPrecision" transform="matrix(1,0,0,1,-137,-155)" stroke="white">
      <rect x="870.0603" width="60" height="40" y="256.424" clip-path="url(#clipPath2)" stroke="none"/>
    </g>
    <g stroke-linecap="butt" transform="matrix(1,0,0,1,-137,-155)" fill="gray" text-rendering="geometricPrecision" shape-rendering="geometricPrecision" stroke="gray" stroke-miterlimit="1.45">
      <rect fill="none" x="870.0603" width="60" height="40" y="256.424" clip-path="url(#clipPath2)"/>
    </g>
    <g font-size="11px" stroke-linecap="butt" transform="matrix(1,0,0,1,-137,-155)" text-rendering="geometricPrecision" font-family="sans-serif" shape-rendering="geometricPrecision" stroke-miterlimit="1.45">
      <text x="889.1014" xml:space="preserve" y="280.6867" clip-path="url(#clipPath2)" stroke="none">apla</text>
    </g>
    <g stroke-linecap="butt" transform="matrix(1,0,0,1,-137,-155)" fill="gray" text-rendering="geometricPrecision" shape-rendering="geometricPrecision" stroke="gray" stroke-miterlimit="1.45">
      <path fill="none" d="M759.8609 250.7008 L847.0742 250.7008" clip-path="url(#clipPath2)"/>
      <path d="M855.0742 250.7008 L843.0742 245.7008 L846.0742 250.7008 L843.0742 255.7008 Z" clip-path="url(#clipPath2)" stroke="none"/>
      <path fill="none" d="M840.0453 346.424 L900.5067 346.424 L900.5067 319.456" clip-path="url(#clipPath2)"/>
      <path d="M900.5067 311.456 L895.5067 323.456 L900.5067 320.456 L905.5067 323.456 Z" clip-path="url(#clipPath2)" stroke="none"/>
      <text x="847.0602" y="339.6054" clip-path="url(#clipPath2)" fill="black" font-family="sans-serif" stroke="none" xml:space="preserve">4</text>
      <path fill="none" d="M855.082 297.832 L760.1727 297.832" clip-path="url(#clipPath2)"/>
      <text x="841.2" y="288.4055" clip-path="url(#clipPath2)" fill="black" font-family="sans-serif" stroke="none" xml:space="preserve">2</text>
      <path fill="none" d="M930.0798 225.736 L941.433 225.736 L941.433 225.736 L942.2728 225.736" clip-path="url(#clipPath2)"/>
      <path d="M950.2728 225.736 L938.2728 220.736 L941.2728 225.736 L938.2728 230.736 Z" clip-path="url(#clipPath2)" stroke="none"/>
      <path fill="none" d="M1010.248 225.736 L1022.5174 225.736" clip-path="url(#clipPath2)"/>
      <path d="M1030.5173 225.736 L1018.5173 220.736 L1021.5173 225.736 L1018.5173 230.736 Z" clip-path="url(#clipPath2)" stroke="none"/>
    </g>
    <g fill="rgb(104,176,227)" text-rendering="geometricPrecision" shape-rendering="geometricPrecision" transform="matrix(1,0,0,1,-137,-155)" stroke="rgb(104,176,227)">
      <path d="M248.7281 170.401 L248.7281 312.6 L499.1721 312.6 L499.1721 170.401 ZM249.7281 192.401 L249.7281 311.6 L498.1721 311.6 L498.1721 192.401 Z" fill-rule="evenodd" clip-path="url(#clipPath2)" stroke="none"/>
    </g>
    <g stroke-linecap="butt" transform="matrix(1,0,0,1,-137,-155)" fill="white" text-rendering="geometricPrecision" font-family="sans-serif" shape-rendering="geometricPrecision" stroke="white" stroke-miterlimit="1.45">
      <text x="250.7281" xml:space="preserve" y="185.2219" clip-path="url(#clipPath2)" stroke="none">Input</text>
    </g>
    <g fill="white" text-rendering="geometricPrecision" shape-rendering="geometricPrecision" transform="matrix(1,0,0,1,-137,-155)" stroke="white">
      <rect x="424.1722" width="60" height="40" y="205.736" clip-path="url(#clipPath2)" stroke="none"/>
    </g>
    <g stroke-linecap="butt" transform="matrix(1,0,0,1,-137,-155)" fill="gray" text-rendering="geometricPrecision" shape-rendering="geometricPrecision" stroke="gray" stroke-miterlimit="1.45">
      <rect fill="none" x="424.1722" width="60" height="40" y="205.736" clip-path="url(#clipPath2)"/>
    </g>
    <g font-size="11px" stroke-linecap="butt" transform="matrix(1,0,0,1,-137,-155)" text-rendering="geometricPrecision" font-family="sans-serif" shape-rendering="geometricPrecision" stroke-miterlimit="1.45">
      <text x="441.9773" xml:space="preserve" y="229.9987" clip-path="url(#clipPath2)" stroke="none">adec</text>
    </g>
    <g fill="white" text-rendering="geometricPrecision" shape-rendering="geometricPrecision" transform="matrix(1,0,0,1,-137,-155)" stroke="white">
      <rect x="263.7281" width="60" height="40" y="205.736" clip-path="url(#clipPath2)" stroke="none"/>
    </g>
    <g stroke-linecap="butt" transform="matrix(1,0,0,1,-137,-155)" fill="gray" text-rendering="geometricPrecision" shape-rendering="geometricPrecision" stroke="gray" stroke-miterlimit="1.45">
      <rect fill="none" x="263.7281" width="60" height="40" y="205.736" clip-path="url(#clipPath2)"/>
    </g>
    <g font-size="11px" stroke-linecap="butt" transform="matrix(1,0,0,1,-137,-155)" text-rendering="geometricPrecision" font-family="sans-serif" shape-rendering="geometricPrecision" stroke-miterlimit="1.45">
      <text x="288.9161" xml:space="preserve" y="229.9987" clip-path="url(#clipPath2)" stroke="none">in</text>
    </g>
    <g fill="white" text-rendering="geometricPrecision" shape-rendering="geometricPrecision" transform="matrix(1,0,0,1,-137,-155)" stroke="white">
      <rect x="343.9501" width="60" height="40" y="205.736" clip-path="url(#clipPath2)" stroke="none"/>
    </g>
    <g stroke-linecap="butt" transform="matrix(1,0,0,1,-137,-155)" fill="gray" text-rendering="geometricPrecision" shape-rendering="geometricPrecision" stroke="gray" stroke-miterlimit="1.45">
      <rect fill="none" x="343.9501" width="60" height="40" y="205.736" clip-path="url(#clipPath2)"/>
    </g>
    <g font-size="11px" stroke-linecap="butt" transform="matrix(1,0,0,1,-137,-155)" text-rendering="geometricPrecision" font-family="sans-serif" shape-rendering="geometricPrecision" stroke-miterlimit="1.45">
      <text x="363.5241" xml:space="preserve" y="229.9987" clip-path="url(#clipPath2)" stroke="none">ifmt</text>
    </g>
    <g fill="white" text-rendering="geometricPrecision" shape-rendering="geometricPrecision" transform="matrix(1,0,0,1,-137,-155)" stroke="white">
      <rect x="263.7281" width="60" height="40" y="257.6" clip-path="url(#clipPath2)" stroke="none"/>
    </g>
    <g stroke-linecap="butt" transform="matrix(1,0,0,1,-137,-155)" fill="gray" text-rendering="geometricPrecision" shape-rendering="geometricPrecision" stroke="gray" stroke-miterlimit="1.45">
      <rect fill="none" x="263.7281" width="60" height="40" y="257.6" clip-path="url(#clipPath2)"/>
    </g>
    <g font-size="11px" stroke-linecap="butt" transform="matrix(1,0,0,1,-137,-155)" text-rendering="geometricPrecision" font-family="sans-serif" shape-rendering="geometricPrecision" stroke-miterlimit="1.45">
      <text x="282.6429" xml:space="preserve" y="281.8627" clip-path="url(#clipPath2)" stroke="none">arec</text>
    </g>
    <g stroke-linecap="butt" transform="matrix(1,0,0,1,-137,-155)" fill="gray" text-rendering="geometricPrecision" shape-rendering="geometricPrecision" stroke="gray" stroke-miterlimit="1.45">
      <path fill="none" d="M222.0269 249.24 L240.7199 249.24" clip-path="url(#clipPath2)"/>
      <path d="M248.7199 249.24 L236.7199 244.24 L239.7199 249.24 L236.7199 254.24 Z" clip-path="url(#clipPath2)" stroke="none"/>
      <path fill="none" d="M499.1678 249.24 L511.4251 249.24" clip-path="url(#clipPath2)"/>
      <path d="M519.4251 249.24 L507.4251 244.24 L510.4251 249.24 L507.4251 254.24 Z" clip-path="url(#clipPath2)" stroke="none"/>
      <path fill="none" d="M323.6938 225.736 L335.9632 225.736" clip-path="url(#clipPath2)"/>
      <path d="M343.9632 225.736 L331.9632 220.736 L334.9632 225.736 L331.9632 230.736 Z" clip-path="url(#clipPath2)" stroke="none"/>
      <path fill="none" d="M403.9214 225.736 L416.1817 225.736" clip-path="url(#clipPath2)"/>
      <path d="M424.1817 225.736 L412.1817 220.736 L415.1817 225.736 L412.1817 230.736 Z" clip-path="url(#clipPath2)" stroke="none"/>
    </g>
  </g>
</svg>
