<?xml version="1.0" encoding="UTF-8"?><svg xmlns="http://www.w3.org/2000/svg" xmlns:xlink="http://www.w3.org/1999/xlink" fill-opacity="1" color-rendering="auto" color-interpolation="auto" text-rendering="auto" stroke="black" stroke-linecap="square" width="570" stroke-miterlimit="10" shape-rendering="auto" stroke-opacity="1" fill="black" stroke-dasharray="none" font-weight="normal" stroke-width="1" height="662" font-family="'Dialog'" font-style="normal" stroke-linejoin="miter" font-size="12px" stroke-dashoffset="0" image-rendering="auto">
  <!--Generated by ySVG 2.5-->
  <defs id="genericDefs"/>
  <g>
    <defs id="defs1">
      <clipPath clipPathUnits="userSpaceOnUse" id="clipPath1">
        <path d="M0 0 L570 0 L570 662 L0 662 L0 0 Z"/>
      </clipPath>
      <clipPath clipPathUnits="userSpaceOnUse" id="clipPath2">
        <path d="M291 9 L861 9 L861 671 L291 671 L291 9 Z"/>
      </clipPath>
    </defs>
    <g fill="white" text-rendering="geometricPrecision" shape-rendering="geometricPrecision" transform="translate(-291,-9)" stroke="white">
      <rect x="291" width="570" height="662" y="9" clip-path="url(#clipPath2)" stroke="none"/>
    </g>
    <g fill="white" text-rendering="geometricPrecision" shape-rendering="geometricPrecision" transform="matrix(1,0,0,1,-291,-9)" stroke="white">
      <rect x="371.1968" width="82.5903" height="40" y="206.36" clip-path="url(#clipPath2)" stroke="none"/>
    </g>
    <g text-rendering="geometricPrecision" stroke-miterlimit="1.45" shape-rendering="geometricPrecision" transform="matrix(1,0,0,1,-291,-9)" stroke-linecap="butt">
      <rect fill="none" x="371.1968" width="82.5903" height="40" y="206.36" clip-path="url(#clipPath2)"/>
      <text x="378.1968" xml:space="preserve" y="231.0134" clip-path="url(#clipPath2)" font-family="sans-serif" stroke="none">MainActivity</text>
    </g>
    <g fill="white" text-rendering="geometricPrecision" shape-rendering="geometricPrecision" transform="matrix(1,0,0,1,-291,-9)" stroke="white">
      <rect x="445.4839" width="55" height="40" y="291.88" clip-path="url(#clipPath2)" stroke="none"/>
    </g>
    <g text-rendering="geometricPrecision" stroke-miterlimit="1.45" shape-rendering="geometricPrecision" transform="matrix(1,0,0,1,-291,-9)" stroke-linecap="butt">
      <rect fill="none" x="445.4839" width="55" height="40" y="291.88" clip-path="url(#clipPath2)"/>
      <text x="454.1243" xml:space="preserve" y="316.5334" clip-path="url(#clipPath2)" font-family="sans-serif" stroke="none">Queue</text>
    </g>
    <g fill="white" text-rendering="geometricPrecision" shape-rendering="geometricPrecision" transform="matrix(1,0,0,1,-291,-9)" stroke="white">
      <rect x="579.6942" width="55" height="40" y="291.88" clip-path="url(#clipPath2)" stroke="none"/>
    </g>
    <g text-rendering="geometricPrecision" stroke-miterlimit="1.45" shape-rendering="geometricPrecision" transform="matrix(1,0,0,1,-291,-9)" stroke-linecap="butt">
      <rect fill="none" x="579.6942" width="55" height="40" y="291.88" clip-path="url(#clipPath2)"/>
      <text x="591.9386" xml:space="preserve" y="316.5334" clip-path="url(#clipPath2)" font-family="sans-serif" stroke="none">Track</text>
    </g>
    <g fill="white" text-rendering="geometricPrecision" shape-rendering="geometricPrecision" transform="matrix(1,0,0,1,-291,-9)" stroke="white">
      <rect x="546.4942" width="121.4" height="24" y="331.88" clip-path="url(#clipPath2)" stroke="none"/>
    </g>
    <g text-rendering="geometricPrecision" stroke-miterlimit="1.45" shape-rendering="geometricPrecision" transform="matrix(1,0,0,1,-291,-9)" stroke-linecap="butt">
      <rect fill="none" x="546.4942" width="121.4" height="24" y="331.88" clip-path="url(#clipPath2)"/>
      <text x="552.5103" y="348.5334" clip-path="url(#clipPath2)" fill="rgb(51,102,255)" font-family="sans-serif" stroke="none" xml:space="preserve">PlaybackObserver[]</text>
    </g>
    <g fill="white" text-rendering="geometricPrecision" shape-rendering="geometricPrecision" transform="matrix(1,0,0,1,-291,-9)" stroke="white">
      <rect x="683.3774" width="55" height="40" y="206.36" clip-path="url(#clipPath2)" stroke="none"/>
    </g>
    <g text-rendering="geometricPrecision" stroke-miterlimit="1.45" shape-rendering="geometricPrecision" transform="matrix(1,0,0,1,-291,-9)" stroke-linecap="butt">
      <rect fill="none" x="683.3774" width="55" height="40" y="206.36" clip-path="url(#clipPath2)"/>
      <text x="701.6605" xml:space="preserve" y="231.0134" clip-path="url(#clipPath2)" font-family="sans-serif" stroke="none">Svc</text>
    </g>
    <g fill="white" text-rendering="geometricPrecision" shape-rendering="geometricPrecision" transform="matrix(1,0,0,1,-291,-9)" stroke="white">
      <rect x="757.4781" width="55" height="40" y="291.88" clip-path="url(#clipPath2)" stroke="none"/>
    </g>
    <g text-rendering="geometricPrecision" stroke-miterlimit="1.45" shape-rendering="geometricPrecision" transform="matrix(1,0,0,1,-291,-9)" stroke-linecap="butt">
      <rect fill="none" x="757.4781" width="55" height="40" y="291.88" clip-path="url(#clipPath2)"/>
      <text x="759.3542" xml:space="preserve" y="316.5334" clip-path="url(#clipPath2)" font-family="sans-serif" stroke="none">SysAudio</text>
    </g>
    <g fill="white" text-rendering="geometricPrecision" shape-rendering="geometricPrecision" transform="matrix(1,0,0,1,-291,-9)" stroke="white">
      <rect x="324.5" width="55" height="40" y="291.88" clip-path="url(#clipPath2)" stroke="none"/>
    </g>
    <g text-rendering="geometricPrecision" stroke-miterlimit="1.45" shape-rendering="geometricPrecision" transform="matrix(1,0,0,1,-291,-9)" stroke-linecap="butt">
      <rect fill="none" x="324.5" width="55" height="40" y="291.88" clip-path="url(#clipPath2)"/>
      <text x="329.2425" xml:space="preserve" y="316.5334" clip-path="url(#clipPath2)" font-family="sans-serif" stroke="none">TrackCtl</text>
    </g>
    <g fill="white" text-rendering="geometricPrecision" shape-rendering="geometricPrecision" transform="matrix(1,0,0,1,-291,-9)" stroke="white">
      <rect x="565.7911" width="82.8062" height="40" y="442.76" clip-path="url(#clipPath2)" stroke="none"/>
    </g>
    <g text-rendering="geometricPrecision" stroke-miterlimit="1.45" shape-rendering="geometricPrecision" transform="matrix(1,0,0,1,-291,-9)" stroke-linecap="butt">
      <rect fill="none" x="565.7911" width="82.8062" height="40" y="442.76" clip-path="url(#clipPath2)"/>
      <text x="585.0964" xml:space="preserve" y="459.2459" clip-path="url(#clipPath2)" font-family="sans-serif" stroke="none">android</text>
      <text x="572.7911" xml:space="preserve" y="475.581" clip-path="url(#clipPath2)" font-family="sans-serif" stroke="none">.Notification</text>
    </g>
    <g fill="white" text-rendering="geometricPrecision" shape-rendering="geometricPrecision" transform="matrix(1,0,0,1,-291,-9)" stroke="white">
      <rect x="682.9942" width="95.4113" height="40" y="442.76" clip-path="url(#clipPath2)" stroke="none"/>
    </g>
    <g text-rendering="geometricPrecision" stroke-miterlimit="1.45" shape-rendering="geometricPrecision" transform="matrix(1,0,0,1,-291,-9)" stroke-linecap="butt">
      <rect fill="none" x="682.9942" width="95.4113" height="40" y="442.76" clip-path="url(#clipPath2)"/>
      <text x="708.602" xml:space="preserve" y="459.2459" clip-path="url(#clipPath2)" font-family="sans-serif" stroke="none">android</text>
      <text x="689.9942" xml:space="preserve" y="475.581" clip-path="url(#clipPath2)" font-family="sans-serif" stroke="none">.PlaybackState</text>
    </g>
    <g fill="white" text-rendering="geometricPrecision" shape-rendering="geometricPrecision" transform="matrix(1,0,0,1,-291,-9)" stroke="white">
      <rect x="578.0964" width="58.1957" height="40" y="501.96" clip-path="url(#clipPath2)" stroke="none"/>
    </g>
    <g text-rendering="geometricPrecision" stroke-miterlimit="1.45" shape-rendering="geometricPrecision" transform="matrix(1,0,0,1,-291,-9)" stroke-linecap="butt">
      <rect fill="none" x="578.0964" width="58.1957" height="40" y="501.96" clip-path="url(#clipPath2)"/>
      <text x="585.0964" xml:space="preserve" y="518.4459" clip-path="url(#clipPath2)" font-family="sans-serif" stroke="none">android</text>
      <text x="585.5821" xml:space="preserve" y="534.7809" clip-path="url(#clipPath2)" font-family="sans-serif" stroke="none">.Service</text>
    </g>
    <g fill="white" text-rendering="geometricPrecision" shape-rendering="geometricPrecision" transform="matrix(1,0,0,1,-291,-9)" stroke="white">
      <rect x="683.372" width="94.6557" height="40" y="501.96" clip-path="url(#clipPath2)" stroke="none"/>
    </g>
    <g text-rendering="geometricPrecision" stroke-miterlimit="1.45" shape-rendering="geometricPrecision" transform="matrix(1,0,0,1,-291,-9)" stroke-linecap="butt">
      <rect fill="none" x="683.372" width="94.6557" height="40" y="501.96" clip-path="url(#clipPath2)"/>
      <text x="708.602" xml:space="preserve" y="518.4459" clip-path="url(#clipPath2)" font-family="sans-serif" stroke="none">android</text>
      <text x="690.372" xml:space="preserve" y="534.7809" clip-path="url(#clipPath2)" font-family="sans-serif" stroke="none">.MediaSession</text>
    </g>
    <g fill="white" text-rendering="geometricPrecision" shape-rendering="geometricPrecision" transform="matrix(1,0,0,1,-291,-9)" stroke="white">
      <rect x="422.2685" width="108.7479" height="40" y="442.76" clip-path="url(#clipPath2)" stroke="none"/>
    </g>
    <g text-rendering="geometricPrecision" stroke-miterlimit="1.45" shape-rendering="geometricPrecision" transform="matrix(1,0,0,1,-291,-9)" stroke-linecap="butt">
      <rect fill="none" x="422.2685" width="108.7479" height="40" y="442.76" clip-path="url(#clipPath2)"/>
      <text x="454.5446" xml:space="preserve" y="459.2459" clip-path="url(#clipPath2)" font-family="sans-serif" stroke="none">android</text>
      <text x="429.2685" xml:space="preserve" y="475.581" clip-path="url(#clipPath2)" font-family="sans-serif" stroke="none">.MediaController</text>
    </g>
    <g fill="white" text-rendering="geometricPrecision" shape-rendering="geometricPrecision" transform="matrix(1,0,0,1,-291,-9)" stroke="white">
      <rect x="306.9722" width="98.9493" height="40" y="442.76" clip-path="url(#clipPath2)" stroke="none"/>
    </g>
    <g text-rendering="geometricPrecision" stroke-miterlimit="1.45" shape-rendering="geometricPrecision" transform="matrix(1,0,0,1,-291,-9)" stroke-linecap="butt">
      <rect fill="none" x="306.9722" width="98.9493" height="40" y="442.76" clip-path="url(#clipPath2)"/>
      <text x="334.349" xml:space="preserve" y="459.2459" clip-path="url(#clipPath2)" font-family="sans-serif" stroke="none">android</text>
      <text x="313.9722" xml:space="preserve" y="475.581" clip-path="url(#clipPath2)" font-family="sans-serif" stroke="none">.MediaBrowser</text>
    </g>
    <g fill="white" text-rendering="geometricPrecision" shape-rendering="geometricPrecision" transform="matrix(1,0,0,1,-291,-9)" stroke="white">
      <rect x="333.3936" width="46.1064" height="15.68" y="408.84" clip-path="url(#clipPath2)" stroke="none"/>
    </g>
    <g text-rendering="geometricPrecision" stroke-miterlimit="1.45" shape-rendering="geometricPrecision" transform="matrix(1,0,0,1,-291,-9)" stroke-linecap="butt">
      <rect fill="none" x="333.3936" width="46.1064" height="15.68" y="408.84" clip-path="url(#clipPath2)"/>
    </g>
    <g fill="white" text-rendering="geometricPrecision" shape-rendering="geometricPrecision" transform="matrix(1,0,0,1,-291,-9)" stroke="white">
      <rect x="629.299" width="216.3888" height="40" y="615.56" clip-path="url(#clipPath2)" stroke="none"/>
    </g>
    <g text-rendering="geometricPrecision" stroke-miterlimit="1.45" shape-rendering="geometricPrecision" transform="matrix(1,0,0,1,-291,-9)" stroke-linecap="butt">
      <rect fill="none" x="629.299" width="216.3888" height="40" y="615.56" clip-path="url(#clipPath2)"/>
      <text x="695.6724" xml:space="preserve" y="632.046" clip-path="url(#clipPath2)" font-family="sans-serif" stroke="none">AudioManager</text>
      <text x="636.299" xml:space="preserve" y="648.381" clip-path="url(#clipPath2)" font-family="sans-serif" stroke="none">.ACTION_AUDIO_BECOMING_NOISY</text>
    </g>
    <g fill="white" text-rendering="geometricPrecision" shape-rendering="geometricPrecision" transform="matrix(1,0,0,1,-291,-9)" stroke="white">
      <rect x="629.299" width="187.8085" height="40" y="558.76" clip-path="url(#clipPath2)" stroke="none"/>
    </g>
    <g text-rendering="geometricPrecision" stroke-miterlimit="1.45" shape-rendering="geometricPrecision" transform="matrix(1,0,0,1,-291,-9)" stroke-linecap="butt">
      <rect fill="none" x="629.299" width="187.8085" height="40" y="558.76" clip-path="url(#clipPath2)"/>
      <text x="681.3822" xml:space="preserve" y="575.2459" clip-path="url(#clipPath2)" font-family="sans-serif" stroke="none">AudioManager</text>
      <text x="636.299" xml:space="preserve" y="591.5809" clip-path="url(#clipPath2)" font-family="sans-serif" stroke="none">.OnAudioFocusChangeListener</text>
    </g>
    <g fill="white" text-rendering="geometricPrecision" shape-rendering="geometricPrecision" transform="matrix(1,0,0,1,-291,-9)" stroke="white">
      <rect x="429.5" width="86.9679" height="24" y="267.88" clip-path="url(#clipPath2)" stroke="none"/>
    </g>
    <g text-rendering="geometricPrecision" stroke-miterlimit="1.45" shape-rendering="geometricPrecision" transform="matrix(1,0,0,1,-291,-9)" stroke-linecap="butt">
      <rect fill="none" x="429.5" width="86.9679" height="24" y="267.88" clip-path="url(#clipPath2)"/>
      <text x="432.7581" xml:space="preserve" y="284.5334" clip-path="url(#clipPath2)" font-family="sans-serif" stroke="none">PhiolaQueue[]</text>
    </g>
    <g fill="white" text-rendering="geometricPrecision" shape-rendering="geometricPrecision" transform="matrix(1,0,0,1,-291,-9)" stroke="white">
      <rect x="558.3879" width="86.9679" height="40" y="136.36" clip-path="url(#clipPath2)" stroke="none"/>
    </g>
    <g text-rendering="geometricPrecision" stroke-miterlimit="1.45" shape-rendering="geometricPrecision" transform="matrix(1,0,0,1,-291,-9)" stroke-linecap="butt">
      <rect fill="none" x="558.3879" width="86.9679" height="40" y="136.36" clip-path="url(#clipPath2)"/>
      <text x="593.6444" xml:space="preserve" y="161.0134" clip-path="url(#clipPath2)" font-family="sans-serif" stroke="none">JNI</text>
    </g>
    <g fill="white" text-rendering="geometricPrecision" shape-rendering="geometricPrecision" transform="matrix(1,0,0,1,-291,-9)" stroke="white">
      <ellipse rx="22.1777" ry="20" clip-path="url(#clipPath2)" cx="601.8719" cy="226.36" stroke="none"/>
    </g>
    <g text-rendering="geometricPrecision" stroke-miterlimit="1.45" shape-rendering="geometricPrecision" transform="matrix(1,0,0,1,-291,-9)" stroke-linecap="butt">
      <ellipse rx="22.1777" fill="none" ry="20" clip-path="url(#clipPath2)" cx="601.8719" cy="226.36"/>
      <text x="588.5952" xml:space="preserve" y="231.0134" clip-path="url(#clipPath2)" font-family="sans-serif" stroke="none">Core</text>
    </g>
    <g fill="white" text-rendering="geometricPrecision" shape-rendering="geometricPrecision" transform="matrix(1,0,0,1,-291,-9)" stroke="white">
      <rect x="429.5" width="86.9679" height="24" y="331.88" clip-path="url(#clipPath2)" stroke="none"/>
    </g>
    <g text-rendering="geometricPrecision" stroke-miterlimit="1.45" shape-rendering="geometricPrecision" transform="matrix(1,0,0,1,-291,-9)" stroke-linecap="butt">
      <rect fill="none" x="429.5" width="86.9679" height="24" y="331.88" clip-path="url(#clipPath2)"/>
      <text x="433.1598" y="348.5334" clip-path="url(#clipPath2)" fill="rgb(51,153,102)" font-family="sans-serif" stroke="none" xml:space="preserve">QueueNotify[]</text>
    </g>
    <g fill="white" text-rendering="geometricPrecision" shape-rendering="geometricPrecision" transform="matrix(1,0,0,1,-291,-9)" stroke="white">
      <rect x="558.3879" width="86.9679" height="40" y="25" clip-path="url(#clipPath2)" stroke="none"/>
    </g>
    <g text-rendering="geometricPrecision" stroke-miterlimit="1.45" shape-rendering="geometricPrecision" transform="matrix(1,0,0,1,-291,-9)" stroke-linecap="butt">
      <rect fill="none" x="558.3879" width="86.9679" height="40" y="25" clip-path="url(#clipPath2)"/>
      <text x="569.5016" xml:space="preserve" y="49.6534" clip-path="url(#clipPath2)" font-family="sans-serif" stroke="none">libphiola.so</text>
    </g>
    <g fill="white" text-rendering="geometricPrecision" shape-rendering="geometricPrecision" transform="matrix(1,0,0,1,-291,-9)" stroke="white">
      <rect x="615.7191" width="98.9493" height="24" y="112.36" clip-path="url(#clipPath2)" stroke="none"/>
    </g>
    <g text-rendering="geometricPrecision" stroke-miterlimit="1.45" shape-rendering="geometricPrecision" transform="matrix(1,0,0,1,-291,-9)" stroke-linecap="butt">
      <rect fill="none" x="615.7191" width="98.9493" height="24" y="112.36" clip-path="url(#clipPath2)"/>
      <text x="622.3473" xml:space="preserve" y="129.0134" clip-path="url(#clipPath2)" font-family="sans-serif" stroke="none">phi_play_guard</text>
    </g>
    <g fill="white" text-rendering="geometricPrecision" shape-rendering="geometricPrecision" transform="matrix(1,0,0,1,-291,-9)" stroke="white">
      <rect x="714.6684" width="98.9493" height="24" y="112.36" clip-path="url(#clipPath2)" stroke="none"/>
    </g>
    <g text-rendering="geometricPrecision" stroke-miterlimit="1.45" shape-rendering="geometricPrecision" transform="matrix(1,0,0,1,-291,-9)" stroke-linecap="butt">
      <rect fill="none" x="714.6684" width="98.9493" height="24" y="112.36" clip-path="url(#clipPath2)"/>
      <text x="732.9662" xml:space="preserve" y="129.0134" clip-path="url(#clipPath2)" font-family="sans-serif" stroke="none">phi_play_ui</text>
    </g>
    <g fill="white" text-rendering="geometricPrecision" shape-rendering="geometricPrecision" transform="matrix(1,0,0,1,-291,-9)" stroke="white">
      <rect x="479.3135" width="98.9493" height="24" y="112.36" clip-path="url(#clipPath2)" stroke="none"/>
    </g>
    <g text-rendering="geometricPrecision" stroke-miterlimit="1.45" shape-rendering="geometricPrecision" transform="matrix(1,0,0,1,-291,-9)" stroke-linecap="butt">
      <rect fill="none" x="479.3135" width="98.9493" height="24" y="112.36" clip-path="url(#clipPath2)"/>
      <text x="488.0106" xml:space="preserve" y="129.0134" clip-path="url(#clipPath2)" font-family="sans-serif" stroke="none">qu_on_change</text>
    </g>
    <g stroke-linecap="butt" transform="matrix(1,0,0,1,-291,-9)" fill="gray" text-rendering="geometricPrecision" shape-rendering="geometricPrecision" stroke="gray" stroke-miterlimit="1.45">
      <path fill="none" d="M412 246.36 L412 311.88 L437.4513 311.88" clip-path="url(#clipPath2)"/>
    </g>
    <g stroke-linecap="butt" transform="matrix(1,0,0,1,-291,-9)" fill="gray" text-rendering="geometricPrecision" shape-rendering="geometricPrecision" stroke="gray" stroke-miterlimit="1.45">
      <path d="M445.4513 311.88 L433.4513 306.88 L436.4513 311.88 L433.4513 316.88 Z" stroke="none" clip-path="url(#clipPath2)"/>
      <text x="415.3044" y="259.7809" clip-path="url(#clipPath2)" fill="black" font-family="sans-serif" stroke="none" xml:space="preserve">play()</text>
      <path fill="none" d="M549.5103 331.854 L549.5103 318.5467 L508.4839 318.5467" clip-path="url(#clipPath2)" stroke="rgb(51,102,255)"/>
      <path fill="rgb(51,102,255)" d="M500.4839 318.5467 L512.4839 323.5467 L509.4839 318.5467 L512.4839 313.5467 Z" clip-path="url(#clipPath2)" stroke="none"/>
      <path fill="none" d="M557.5839 331.8322 L557.5839 233.9708 L461.7871 233.9708" clip-path="url(#clipPath2)" stroke="rgb(51,102,255)"/>
      <path fill="rgb(51,102,255)" d="M453.7871 233.9708 L465.7871 238.9708 L462.7871 233.9708 L465.7871 228.9708 Z" clip-path="url(#clipPath2)" stroke="none"/>
      <path fill="none" d="M667.8942 343.88 L695.6605 343.88 L695.6605 254.36" clip-path="url(#clipPath2)" stroke="rgb(51,102,255)"/>
      <path fill="rgb(51,102,255)" d="M695.6605 246.36 L690.6605 258.36 L695.6605 255.36 L700.6605 258.36 Z" clip-path="url(#clipPath2)" stroke="none"/>
      <path fill="none" d="M692.6605 246.36 L692.6605 297.7962 L642.6942 297.7962" clip-path="url(#clipPath2)"/>
      <path d="M634.6942 297.7962 L646.6942 302.7962 L643.6942 297.7962 L646.6942 292.7962 Z" clip-path="url(#clipPath2)" stroke="none"/>
      <path fill="none" d="M686.6605 246.36 L686.6605 260.6133 L531.4811 260.6133 L531.4811 311.88 L508.4839 311.88" clip-path="url(#clipPath2)"/>
      <path d="M500.4839 311.88 L512.4839 316.88 L509.4839 311.88 L512.4839 306.88 Z" clip-path="url(#clipPath2)" stroke="none"/>
      <path fill="none" d="M375.8484 246.36 L375.8484 283.8355" clip-path="url(#clipPath2)"/>
      <path d="M375.8484 291.8355 L380.8484 279.8355 L375.8484 282.8355 L370.8484 279.8355 Z" clip-path="url(#clipPath2)" stroke="none"/>
      <path fill="none" d="M698.6605 246.36 L698.6605 381.2 L645.0973 381.2 L645.0973 434.7299" clip-path="url(#clipPath2)"/>
      <path d="M645.0973 442.7299 L650.0973 430.7299 L645.0973 433.7299 L640.0973 430.7299 Z" clip-path="url(#clipPath2)" stroke="none"/>
      <path fill="none" d="M718.2075 246.36 L718.2075 434.712" clip-path="url(#clipPath2)"/>
      <path d="M718.2075 442.712 L723.2075 430.712 L718.2075 433.712 L713.2075 430.712 Z" clip-path="url(#clipPath2)" stroke="none"/>
      <path fill="none" d="M607.1942 482.76 L607.1942 493.9225" clip-path="url(#clipPath2)"/>
      <path d="M607.1942 501.9225 L612.1942 489.9225 L607.1942 492.9225 L602.1942 489.9225 Z" clip-path="url(#clipPath2)" stroke="none"/>
      <path fill="none" d="M730.6998 482.76 L730.6998 493.9225" clip-path="url(#clipPath2)"/>
      <path d="M730.6998 501.9225 L735.6998 489.9225 L730.6998 492.9225 L725.6998 489.9225 Z" clip-path="url(#clipPath2)" stroke="none"/>
      <path fill="none" d="M778.0276 521.96 L822.4781 521.96 L822.4781 226.36 L746.3774 226.36" clip-path="url(#clipPath2)"/>
      <path d="M738.3774 226.36 L750.3774 231.36 L747.3774 226.36 L750.3774 221.36 Z" clip-path="url(#clipPath2)" stroke="none"/>
      <path fill="none" d="M370.7367 331.88 L370.7367 382.36 L425.7685 382.36 L425.7685 434.7305" clip-path="url(#clipPath2)"/>
      <path d="M425.7685 442.7305 L430.7685 430.7305 L425.7685 433.7305 L420.7685 430.7305 Z" clip-path="url(#clipPath2)" stroke="none"/>
      <text x="409.7453" y="391.6945" clip-path="url(#clipPath2)" fill="black" font-family="sans-serif" stroke="none" xml:space="preserve">next()</text>
      <text x="409.3316" y="408.0295" clip-path="url(#clipPath2)" fill="black" font-family="sans-serif" stroke="none" xml:space="preserve">seek()</text>
      <text x="420.9472" y="424.3645" clip-path="url(#clipPath2)" fill="black" font-family="sans-serif" stroke="none" xml:space="preserve">...</text>
      <path fill="none" d="M527.5165 482.76 L527.5165 501.96 L675.3339 501.96" clip-path="url(#clipPath2)"/>
      <path d="M683.3339 501.96 L671.3339 496.96 L674.3339 501.96 L671.3339 506.96 Z" clip-path="url(#clipPath2)" stroke="none"/>
      <path fill="none" d="M405.9215 462.76 L414.2366 462.76" clip-path="url(#clipPath2)"/>
      <path d="M422.2366 462.76 L410.2366 457.76 L413.2366 462.76 L410.2366 467.76 Z" clip-path="url(#clipPath2)" stroke="none"/>
      <path fill="none" d="M359.2101 331.88 L359.2101 400.8024" clip-path="url(#clipPath2)"/>
      <path d="M359.2101 408.8024 L364.2101 396.8024 L359.2101 399.8024 L354.2101 396.8024 Z" clip-path="url(#clipPath2)" stroke="none"/>
      <path fill="none" d="M708.434 246.36 L708.434 411.84 L387.5 411.84" clip-path="url(#clipPath2)"/>
      <path d="M379.5 411.84 L391.5 416.84 L388.5 411.84 L391.5 406.84 Z" clip-path="url(#clipPath2)" stroke="none"/>
      <path fill="none" d="M356.4468 424.52 L356.4468 434.7244" clip-path="url(#clipPath2)"/>
      <path d="M356.4468 442.7244 L361.4468 430.7244 L356.4468 433.7244 L351.4468 430.7244 Z" clip-path="url(#clipPath2)" stroke="none"/>
      <path fill="none" d="M820.4781 325.9637 L836.8276 325.9637 L836.8276 607.5247" clip-path="url(#clipPath2)" stroke="rgb(255,153,0)"/>
      <path fill="rgb(255,153,0)" d="M812.4781 325.9637 L824.4781 330.9637 L821.4781 325.9637 L824.4781 320.9637 Z" clip-path="url(#clipPath2)" stroke="none"/>
      <path fill="rgb(255,153,0)" d="M836.8276 615.5247 L841.8276 603.5247 L836.8276 606.5247 L831.8276 603.5247 Z" clip-path="url(#clipPath2)" stroke="none"/>
      <path fill="none" d="M798.9418 339.88 L798.9418 550.7323" clip-path="url(#clipPath2)" stroke="rgb(255,153,0)"/>
      <path fill="rgb(255,153,0)" d="M798.9418 331.88 L793.9418 343.88 L798.9418 340.88 L803.9418 343.88 Z" clip-path="url(#clipPath2)" stroke="none"/>
      <path fill="rgb(255,153,0)" d="M798.9418 558.7323 L803.9418 546.7323 L798.9418 549.7323 L793.9418 546.7323 Z" clip-path="url(#clipPath2)" stroke="none"/>
      <path fill="none" d="M488.6275 267.8536 L488.6275 159.86 L550.3539 159.86" clip-path="url(#clipPath2)"/>
      <path d="M558.3539 159.86 L546.3539 154.86 L549.3539 159.86 L546.3539 164.86 Z" clip-path="url(#clipPath2)" stroke="none"/>
      <path fill="none" d="M579.6668 297.7962 L565.6574 297.7962 L565.6574 184.36" clip-path="url(#clipPath2)"/>
      <path d="M565.6574 176.36 L560.6574 188.36 L565.6574 185.36 L570.6574 188.36 Z" clip-path="url(#clipPath2)" stroke="none"/>
      <path fill="none" d="M683.3484 226.36 L632.0496 226.36" clip-path="url(#clipPath2)"/>
      <path d="M624.0496 226.36 L636.0496 231.36 L633.0496 226.36 L636.0496 221.36 Z" clip-path="url(#clipPath2)" stroke="none"/>
      <path fill="none" d="M453.7871 215.1925 L575.4438 215.1925" clip-path="url(#clipPath2)"/>
      <path d="M583.4438 215.1925 L571.4438 210.1925 L574.4438 215.1925 L571.4438 220.1925 Z" clip-path="url(#clipPath2)" stroke="none"/>
      <path fill="none" d="M592.2831 244.4376 L592.2831 283.8337" clip-path="url(#clipPath2)" stroke="rgb(51,102,255)"/>
      <path fill="rgb(51,102,255)" d="M592.2831 291.8337 L597.2831 279.8337 L592.2831 282.8337 L587.2831 279.8337 Z" clip-path="url(#clipPath2)" stroke="none"/>
      <path fill="none" d="M611.4607 252.4237 L611.4607 277.6267 L784.9781 277.6267 L784.9781 283.8522" clip-path="url(#clipPath2)" stroke="rgb(255,153,0)"/>
      <path fill="rgb(255,153,0)" d="M611.4607 244.4237 L606.4607 256.4237 L611.4607 253.4237 L616.4607 256.4237 Z" clip-path="url(#clipPath2)" stroke="none"/>
      <path fill="rgb(255,153,0)" d="M784.9781 291.8522 L789.9781 279.8522 L784.9781 282.8522 L779.9781 279.8522 Z" clip-path="url(#clipPath2)" stroke="none"/>
      <path fill="none" d="M516.4679 343.88 L534.8232 343.88 L534.8232 269.12 L689.6605 269.12 L689.6605 254.36" clip-path="url(#clipPath2)" stroke="rgb(51,153,102)"/>
      <path fill="rgb(51,153,102)" d="M689.6605 246.36 L684.6605 258.36 L689.6605 255.36 L694.6605 258.36 Z" clip-path="url(#clipPath2)" stroke="none"/>
      <path fill="none" d="M429.4683 343.88 L397 343.88 L397 254.36" clip-path="url(#clipPath2)" stroke="rgb(51,153,102)"/>
      <path fill="rgb(51,153,102)" d="M397 246.36 L392 258.36 L397 255.36 L402 258.36 Z" clip-path="url(#clipPath2)" stroke="none"/>
      <path fill="none" d="M598.1818 128.3251 L598.1818 73" clip-path="url(#clipPath2)"/>
      <path d="M598.1818 136.3251 L603.1818 124.3251 L598.1818 127.3251 L593.1818 124.3251 Z" clip-path="url(#clipPath2)" stroke="none"/>
      <path d="M598.1818 65 L593.1818 77 L598.1818 74 L603.1818 77 Z" clip-path="url(#clipPath2)" stroke="none"/>
      <path fill="none" d="M627.9806 73 L627.9806 104.3138" clip-path="url(#clipPath2)"/>
      <path d="M627.9806 65 L622.9806 77 L627.9806 74 L632.9806 77 Z" clip-path="url(#clipPath2)" stroke="none"/>
      <path d="M627.9806 112.3138 L632.9806 100.3138 L627.9806 103.3138 L622.9806 100.3138 Z" clip-path="url(#clipPath2)" stroke="none"/>
      <path fill="none" d="M653.3558 45 L727.3173 45 L727.3173 104.3271" clip-path="url(#clipPath2)"/>
      <path d="M645.3558 45 L657.3558 50 L654.3558 45 L657.3558 40 Z" clip-path="url(#clipPath2)" stroke="none"/>
      <path d="M727.3173 112.3271 L732.3173 100.3271 L727.3173 103.3271 L722.3173 100.3271 Z" clip-path="url(#clipPath2)" stroke="none"/>
      <path fill="none" d="M727.3173 136.36 L727.3173 191.36 L601.8719 191.36 L601.8719 198.36" clip-path="url(#clipPath2)" stroke="rgb(51,102,255)"/>
      <path fill="rgb(51,102,255)" d="M601.8719 206.36 L606.8719 194.36 L601.8719 197.36 L596.8719 194.36 Z" clip-path="url(#clipPath2)" stroke="none"/>
      <text x="731.1437" y="156.181" clip-path="url(#clipPath2)" fill="rgb(51,102,255)" font-family="sans-serif" stroke="none" xml:space="preserve">Callbacks</text>
      <path fill="none" d="M570.8822 65 L570.8822 104.3138" clip-path="url(#clipPath2)"/>
      <path d="M570.8822 112.3138 L575.8822 100.3138 L570.8822 103.3138 L565.8822 100.3138 Z" clip-path="url(#clipPath2)" stroke="none"/>
      <path fill="none" d="M528.139 136.36 L528.139 305.2133 L508.4839 305.2133" clip-path="url(#clipPath2)" stroke="rgb(51,153,102)"/>
      <path fill="rgb(51,153,102)" d="M500.4839 305.2133 L512.4839 310.2133 L509.4839 305.2133 L512.4839 300.2133 Z" clip-path="url(#clipPath2)" stroke="none"/>
      <text x="443.6582" y="152.981" clip-path="url(#clipPath2)" fill="rgb(51,153,102)" font-family="sans-serif" stroke="none" xml:space="preserve">QueueCallback</text>
    </g>
  </g>
</svg>
