<?xml version="1.0" encoding="UTF-8"?><svg xmlns="http://www.w3.org/2000/svg" xmlns:xlink="http://www.w3.org/1999/xlink" fill-opacity="1" color-rendering="auto" color-interpolation="auto" text-rendering="auto" stroke="black" stroke-linecap="square" width="916" stroke-miterlimit="10" shape-rendering="auto" stroke-opacity="1" fill="black" stroke-dasharray="none" font-weight="normal" stroke-width="1" height="555" font-family="'Dialog'" font-style="normal" stroke-linejoin="miter" font-size="12px" stroke-dashoffset="0" image-rendering="auto">
  <!--Generated by ySVG 2.5-->
  <defs id="genericDefs"/>
  <g>
    <defs id="defs1">
      <clipPath clipPathUnits="userSpaceOnUse" id="clipPath1">
        <path d="M0 0 L916 0 L916 555 L0 555 L0 0 Z"/>
      </clipPath>
      <clipPath clipPathUnits="userSpaceOnUse" id="clipPath2">
        <path d="M299 17 L1215 17 L1215 572 L299 572 L299 17 Z"/>
      </clipPath>
    </defs>
    <g fill="white" text-rendering="geometricPrecision" shape-rendering="geometricPrecision" transform="translate(-299,-17)" stroke="white">
      <rect x="299" width="916" height="555" y="17" clip-path="url(#clipPath2)" stroke="none"/>
    </g>
    <g fill="white" text-rendering="geometricPrecision" shape-rendering="geometricPrecision" transform="matrix(1,0,0,1,-299,-17)" stroke="white">
      <rect x="330.7048" width="82.5903" height="40" y="141" clip-path="url(#clipPath2)" stroke="none"/>
    </g>
    <g text-rendering="geometricPrecision" stroke-miterlimit="1.45" shape-rendering="geometricPrecision" transform="matrix(1,0,0,1,-299,-17)" stroke-linecap="butt">
      <rect fill="none" x="330.7048" width="82.5903" height="40" y="141" clip-path="url(#clipPath2)"/>
      <text x="337.7048" xml:space="preserve" y="165.6534" clip-path="url(#clipPath2)" font-family="sans-serif" stroke="none">MainActivity</text>
    </g>
    <g fill="white" text-rendering="geometricPrecision" shape-rendering="geometricPrecision" transform="matrix(1,0,0,1,-299,-17)" stroke="white">
      <rect x="498.74" width="55" height="40" y="141" clip-path="url(#clipPath2)" stroke="none"/>
    </g>
    <g text-rendering="geometricPrecision" stroke-miterlimit="1.45" shape-rendering="geometricPrecision" transform="matrix(1,0,0,1,-299,-17)" stroke-linecap="butt">
      <rect fill="none" x="498.74" width="55" height="40" y="141" clip-path="url(#clipPath2)"/>
      <text x="507.3804" xml:space="preserve" y="165.6534" clip-path="url(#clipPath2)" font-family="sans-serif" stroke="none">Queue</text>
    </g>
    <g fill="white" text-rendering="geometricPrecision" shape-rendering="geometricPrecision" transform="matrix(1,0,0,1,-299,-17)" stroke="white">
      <rect x="611.5405" width="55" height="40" y="141" clip-path="url(#clipPath2)" stroke="none"/>
    </g>
    <g text-rendering="geometricPrecision" stroke-miterlimit="1.45" shape-rendering="geometricPrecision" transform="matrix(1,0,0,1,-299,-17)" stroke-linecap="butt">
      <rect fill="none" x="611.5405" width="55" height="40" y="141" clip-path="url(#clipPath2)"/>
      <text x="623.7849" xml:space="preserve" y="165.6534" clip-path="url(#clipPath2)" font-family="sans-serif" stroke="none">Track</text>
    </g>
    <g fill="white" text-rendering="geometricPrecision" shape-rendering="geometricPrecision" transform="matrix(1,0,0,1,-299,-17)" stroke="white">
      <rect x="611.5405" width="55" height="40" y="288.24" clip-path="url(#clipPath2)" stroke="none"/>
    </g>
    <g text-rendering="geometricPrecision" stroke-miterlimit="1.45" shape-rendering="geometricPrecision" transform="matrix(1,0,0,1,-299,-17)" stroke-linecap="butt">
      <rect fill="none" x="611.5405" width="55" height="40" y="288.24" clip-path="url(#clipPath2)"/>
      <text x="622.9873" xml:space="preserve" y="312.8934" clip-path="url(#clipPath2)" font-family="sans-serif" stroke="none">filters</text>
    </g>
    <g fill="white" text-rendering="geometricPrecision" shape-rendering="geometricPrecision" transform="matrix(1,0,0,1,-299,-17)" stroke="white">
      <rect x="787.0134" width="55" height="40" y="288.24" clip-path="url(#clipPath2)" stroke="none"/>
    </g>
    <g text-rendering="geometricPrecision" stroke-miterlimit="1.45" shape-rendering="geometricPrecision" transform="matrix(1,0,0,1,-299,-17)" stroke-linecap="butt">
      <rect fill="none" x="787.0134" width="55" height="40" y="288.24" clip-path="url(#clipPath2)"/>
      <text x="805.2964" xml:space="preserve" y="312.8934" clip-path="url(#clipPath2)" font-family="sans-serif" stroke="none">Svc</text>
    </g>
    <g fill="white" text-rendering="geometricPrecision" shape-rendering="geometricPrecision" transform="matrix(1,0,0,1,-299,-17)" stroke="white">
      <rect x="699.495" width="55" height="40" y="288.24" clip-path="url(#clipPath2)" stroke="none"/>
    </g>
    <g text-rendering="geometricPrecision" stroke-miterlimit="1.45" shape-rendering="geometricPrecision" transform="matrix(1,0,0,1,-299,-17)" stroke-linecap="butt">
      <rect fill="none" x="699.495" width="55" height="40" y="288.24" clip-path="url(#clipPath2)"/>
      <text x="705.9466" xml:space="preserve" y="312.8934" clip-path="url(#clipPath2)" font-family="sans-serif" stroke="none">SysJobs</text>
    </g>
    <g fill="white" text-rendering="geometricPrecision" shape-rendering="geometricPrecision" transform="matrix(1,0,0,1,-299,-17)" stroke="white">
      <rect x="950.4307" width="65.8595" height="40" y="141" clip-path="url(#clipPath2)" stroke="none"/>
    </g>
    <g text-rendering="geometricPrecision" stroke-miterlimit="1.45" shape-rendering="geometricPrecision" transform="matrix(1,0,0,1,-299,-17)" stroke-linecap="butt">
      <rect fill="none" x="950.4307" width="65.8595" height="40" y="141" clip-path="url(#clipPath2)"/>
      <text x="957.4307" xml:space="preserve" y="165.6534" clip-path="url(#clipPath2)" font-family="sans-serif" stroke="none">Track.MP</text>
    </g>
    <g fill="white" text-rendering="geometricPrecision" shape-rendering="geometricPrecision" transform="matrix(1,0,0,1,-299,-17)" stroke="white">
      <rect x="1112.5284" width="86.9679" height="40" y="442.76" clip-path="url(#clipPath2)" stroke="none"/>
    </g>
    <g text-rendering="geometricPrecision" stroke-miterlimit="1.45" shape-rendering="geometricPrecision" transform="matrix(1,0,0,1,-299,-17)" stroke-linecap="butt">
      <rect fill="none" x="1112.5284" width="86.9679" height="40" y="442.76" clip-path="url(#clipPath2)"/>
      <text x="1133.9146" xml:space="preserve" y="459.2459" clip-path="url(#clipPath2)" font-family="sans-serif" stroke="none">android</text>
      <text x="1119.5284" xml:space="preserve" y="475.581" clip-path="url(#clipPath2)" font-family="sans-serif" stroke="none">.MediaPlayer</text>
    </g>
    <g fill="white" text-rendering="geometricPrecision" shape-rendering="geometricPrecision" transform="matrix(1,0,0,1,-299,-17)" stroke="white">
      <ellipse rx="22.1777" ry="20" clip-path="url(#clipPath2)" cx="858.9058" cy="161" stroke="none"/>
    </g>
    <g text-rendering="geometricPrecision" stroke-miterlimit="1.45" shape-rendering="geometricPrecision" transform="matrix(1,0,0,1,-299,-17)" stroke-linecap="butt">
      <ellipse rx="22.1777" fill="none" ry="20" clip-path="url(#clipPath2)" cx="858.9058" cy="161"/>
      <text x="843.7281" xml:space="preserve" y="165.6534" clip-path="url(#clipPath2)" font-family="sans-serif" stroke="none">timer</text>
    </g>
    <g fill="white" text-rendering="geometricPrecision" shape-rendering="geometricPrecision" transform="matrix(1,0,0,1,-299,-17)" stroke="white">
      <rect x="950.4307" width="65.8595" height="40" y="187.88" clip-path="url(#clipPath2)" stroke="none"/>
    </g>
    <g text-rendering="geometricPrecision" stroke-miterlimit="1.45" shape-rendering="geometricPrecision" transform="matrix(1,0,0,1,-299,-17)" stroke-linecap="butt">
      <rect fill="none" x="950.4307" width="65.8595" height="40" y="187.88" clip-path="url(#clipPath2)"/>
      <text x="957.4307" xml:space="preserve" y="212.5334" clip-path="url(#clipPath2)" font-family="sans-serif" stroke="none">Track.MP</text>
    </g>
    <g fill="white" text-rendering="geometricPrecision" shape-rendering="geometricPrecision" transform="matrix(1,0,0,1,-299,-17)" stroke="white">
      <rect x="401.6499" width="55" height="40" y="291.88" clip-path="url(#clipPath2)" stroke="none"/>
    </g>
    <g text-rendering="geometricPrecision" stroke-miterlimit="1.45" shape-rendering="geometricPrecision" transform="matrix(1,0,0,1,-299,-17)" stroke-linecap="butt">
      <rect fill="none" x="401.6499" width="55" height="40" y="291.88" clip-path="url(#clipPath2)"/>
      <text x="406.3924" xml:space="preserve" y="316.5334" clip-path="url(#clipPath2)" font-family="sans-serif" stroke="none">TrackCtl</text>
    </g>
    <g fill="white" text-rendering="geometricPrecision" shape-rendering="geometricPrecision" transform="matrix(1,0,0,1,-299,-17)" stroke="white">
      <rect x="737.2703" width="82.8062" height="40" y="379.16" clip-path="url(#clipPath2)" stroke="none"/>
    </g>
    <g text-rendering="geometricPrecision" stroke-miterlimit="1.45" shape-rendering="geometricPrecision" transform="matrix(1,0,0,1,-299,-17)" stroke-linecap="butt">
      <rect fill="none" x="737.2703" width="82.8062" height="40" y="379.16" clip-path="url(#clipPath2)"/>
      <text x="756.5755" xml:space="preserve" y="395.6459" clip-path="url(#clipPath2)" font-family="sans-serif" stroke="none">android</text>
      <text x="744.2703" xml:space="preserve" y="411.981" clip-path="url(#clipPath2)" font-family="sans-serif" stroke="none">.Notification</text>
    </g>
    <g fill="white" text-rendering="geometricPrecision" shape-rendering="geometricPrecision" transform="matrix(1,0,0,1,-299,-17)" stroke="white">
      <rect x="911.2383" width="48.6148" height="15.68" y="454.92" clip-path="url(#clipPath2)" stroke="none"/>
    </g>
    <g text-rendering="geometricPrecision" stroke-miterlimit="1.45" shape-rendering="geometricPrecision" transform="matrix(1,0,0,1,-299,-17)" stroke-linecap="butt">
      <rect fill="none" x="911.2383" width="48.6148" height="15.68" y="454.92" clip-path="url(#clipPath2)"/>
    </g>
    <g fill="white" text-rendering="geometricPrecision" shape-rendering="geometricPrecision" transform="matrix(1,0,0,1,-299,-17)" stroke="white">
      <rect x="898.1664" width="95.4113" height="40" y="379.16" clip-path="url(#clipPath2)" stroke="none"/>
    </g>
    <g text-rendering="geometricPrecision" stroke-miterlimit="1.45" shape-rendering="geometricPrecision" transform="matrix(1,0,0,1,-299,-17)" stroke-linecap="butt">
      <rect fill="none" x="898.1664" width="95.4113" height="40" y="379.16" clip-path="url(#clipPath2)"/>
      <text x="923.7742" xml:space="preserve" y="395.6459" clip-path="url(#clipPath2)" font-family="sans-serif" stroke="none">android</text>
      <text x="905.1664" xml:space="preserve" y="411.981" clip-path="url(#clipPath2)" font-family="sans-serif" stroke="none">.PlaybackState</text>
    </g>
    <g fill="white" text-rendering="geometricPrecision" shape-rendering="geometricPrecision" transform="matrix(1,0,0,1,-299,-17)" stroke="white">
      <rect x="830.0236" width="58.1957" height="40" y="442.76" clip-path="url(#clipPath2)" stroke="none"/>
    </g>
    <g text-rendering="geometricPrecision" stroke-miterlimit="1.45" shape-rendering="geometricPrecision" transform="matrix(1,0,0,1,-299,-17)" stroke-linecap="butt">
      <rect fill="none" x="830.0236" width="58.1957" height="40" y="442.76" clip-path="url(#clipPath2)"/>
      <text x="837.0236" xml:space="preserve" y="459.2459" clip-path="url(#clipPath2)" font-family="sans-serif" stroke="none">android</text>
      <text x="837.5093" xml:space="preserve" y="475.581" clip-path="url(#clipPath2)" font-family="sans-serif" stroke="none">.Service</text>
    </g>
    <g fill="white" text-rendering="geometricPrecision" shape-rendering="geometricPrecision" transform="matrix(1,0,0,1,-299,-17)" stroke="white">
      <rect x="982.872" width="94.6557" height="40" y="442.76" clip-path="url(#clipPath2)" stroke="none"/>
    </g>
    <g text-rendering="geometricPrecision" stroke-miterlimit="1.45" shape-rendering="geometricPrecision" transform="matrix(1,0,0,1,-299,-17)" stroke-linecap="butt">
      <rect fill="none" x="982.872" width="94.6557" height="40" y="442.76" clip-path="url(#clipPath2)"/>
      <text x="1008.1021" xml:space="preserve" y="459.2459" clip-path="url(#clipPath2)" font-family="sans-serif" stroke="none">android</text>
      <text x="989.8721" xml:space="preserve" y="475.581" clip-path="url(#clipPath2)" font-family="sans-serif" stroke="none">.MediaSession</text>
    </g>
    <g fill="white" text-rendering="geometricPrecision" shape-rendering="geometricPrecision" transform="matrix(1,0,0,1,-299,-17)" stroke="white">
      <rect x="754.366" width="48.6148" height="15.68" y="454.92" clip-path="url(#clipPath2)" stroke="none"/>
    </g>
    <g text-rendering="geometricPrecision" stroke-miterlimit="1.45" shape-rendering="geometricPrecision" transform="matrix(1,0,0,1,-299,-17)" stroke-linecap="butt">
      <rect fill="none" x="754.366" width="48.6148" height="15.68" y="454.92" clip-path="url(#clipPath2)"/>
    </g>
    <g fill="white" text-rendering="geometricPrecision" shape-rendering="geometricPrecision" transform="matrix(1,0,0,1,-299,-17)" stroke="white">
      <rect x="374.7759" width="108.7479" height="40" y="442.76" clip-path="url(#clipPath2)" stroke="none"/>
    </g>
    <g text-rendering="geometricPrecision" stroke-miterlimit="1.45" shape-rendering="geometricPrecision" transform="matrix(1,0,0,1,-299,-17)" stroke-linecap="butt">
      <rect fill="none" x="374.7759" width="108.7479" height="40" y="442.76" clip-path="url(#clipPath2)"/>
      <text x="407.052" xml:space="preserve" y="459.2459" clip-path="url(#clipPath2)" font-family="sans-serif" stroke="none">android</text>
      <text x="381.7759" xml:space="preserve" y="475.581" clip-path="url(#clipPath2)" font-family="sans-serif" stroke="none">.MediaController</text>
    </g>
    <g fill="white" text-rendering="geometricPrecision" shape-rendering="geometricPrecision" transform="matrix(1,0,0,1,-299,-17)" stroke="white">
      <rect x="557.7196" width="98.9493" height="40" y="442.76" clip-path="url(#clipPath2)" stroke="none"/>
    </g>
    <g text-rendering="geometricPrecision" stroke-miterlimit="1.45" shape-rendering="geometricPrecision" transform="matrix(1,0,0,1,-299,-17)" stroke-linecap="butt">
      <rect fill="none" x="557.7196" width="98.9493" height="40" y="442.76" clip-path="url(#clipPath2)"/>
      <text x="585.0964" xml:space="preserve" y="459.2459" clip-path="url(#clipPath2)" font-family="sans-serif" stroke="none">android</text>
      <text x="564.7195" xml:space="preserve" y="475.581" clip-path="url(#clipPath2)" font-family="sans-serif" stroke="none">.MediaBrowser</text>
    </g>
    <g fill="white" text-rendering="geometricPrecision" shape-rendering="geometricPrecision" transform="matrix(1,0,0,1,-299,-17)" stroke="white">
      <rect x="584.141" width="46.1064" height="15.68" y="391.32" clip-path="url(#clipPath2)" stroke="none"/>
    </g>
    <g text-rendering="geometricPrecision" stroke-miterlimit="1.45" shape-rendering="geometricPrecision" transform="matrix(1,0,0,1,-299,-17)" stroke-linecap="butt">
      <rect fill="none" x="584.141" width="46.1064" height="15.68" y="391.32" clip-path="url(#clipPath2)"/>
    </g>
    <g fill="white" text-rendering="geometricPrecision" shape-rendering="geometricPrecision" transform="matrix(1,0,0,1,-299,-17)" stroke="white">
      <rect x="694.6904" width="216.3888" height="40" y="506.36" clip-path="url(#clipPath2)" stroke="none"/>
    </g>
    <g text-rendering="geometricPrecision" stroke-miterlimit="1.45" shape-rendering="geometricPrecision" transform="matrix(1,0,0,1,-299,-17)" stroke-linecap="butt">
      <rect fill="none" x="694.6904" width="216.3888" height="40" y="506.36" clip-path="url(#clipPath2)"/>
      <text x="761.0638" xml:space="preserve" y="522.8459" clip-path="url(#clipPath2)" font-family="sans-serif" stroke="none">AudioManager</text>
      <text x="701.6904" xml:space="preserve" y="539.181" clip-path="url(#clipPath2)" font-family="sans-serif" stroke="none">.ACTION_AUDIO_BECOMING_NOISY</text>
    </g>
    <g fill="white" text-rendering="geometricPrecision" shape-rendering="geometricPrecision" transform="matrix(1,0,0,1,-299,-17)" stroke="white">
      <rect x="487.66" width="187.8085" height="40" y="506.36" clip-path="url(#clipPath2)" stroke="none"/>
    </g>
    <g text-rendering="geometricPrecision" stroke-miterlimit="1.45" shape-rendering="geometricPrecision" transform="matrix(1,0,0,1,-299,-17)" stroke-linecap="butt">
      <rect fill="none" x="487.66" width="187.8085" height="40" y="506.36" clip-path="url(#clipPath2)"/>
      <text x="539.7432" xml:space="preserve" y="522.8459" clip-path="url(#clipPath2)" font-family="sans-serif" stroke="none">AudioManager</text>
      <text x="494.66" xml:space="preserve" y="539.181" clip-path="url(#clipPath2)" font-family="sans-serif" stroke="none">.OnAudioFocusChangeListener</text>
    </g>
    <g fill="white" text-rendering="geometricPrecision" shape-rendering="geometricPrecision" transform="matrix(1,0,0,1,-299,-17)" stroke="white">
      <rect x="323.4848" width="55" height="40" y="221.88" clip-path="url(#clipPath2)" stroke="none"/>
    </g>
    <g text-rendering="geometricPrecision" stroke-miterlimit="1.45" shape-rendering="geometricPrecision" transform="matrix(1,0,0,1,-299,-17)" stroke-linecap="butt">
      <rect fill="none" x="323.4848" width="55" height="40" y="221.88" clip-path="url(#clipPath2)"/>
      <text x="327.2799" xml:space="preserve" y="246.5334" clip-path="url(#clipPath2)" font-family="sans-serif" stroke="none">Explorer</text>
    </g>
    <g fill="white" text-rendering="geometricPrecision" shape-rendering="geometricPrecision" transform="matrix(1,0,0,1,-299,-17)" stroke="white">
      <rect x="482.7561" width="86.9679" height="40" y="86" clip-path="url(#clipPath2)" stroke="none"/>
    </g>
    <g text-rendering="geometricPrecision" stroke-miterlimit="1.45" shape-rendering="geometricPrecision" transform="matrix(1,0,0,1,-299,-17)" stroke-linecap="butt">
      <rect fill="none" x="482.7561" width="86.9679" height="40" y="86" clip-path="url(#clipPath2)"/>
      <text x="489.9599" xml:space="preserve" y="110.6534" clip-path="url(#clipPath2)" font-family="sans-serif" stroke="none">PhiolaQueue</text>
    </g>
    <g fill="white" text-rendering="geometricPrecision" shape-rendering="geometricPrecision" transform="matrix(1,0,0,1,-299,-17)" stroke="white">
      <rect x="482.7561" width="86.9679" height="40" y="32.04" clip-path="url(#clipPath2)" stroke="none"/>
    </g>
    <g text-rendering="geometricPrecision" stroke-miterlimit="1.45" shape-rendering="geometricPrecision" transform="matrix(1,0,0,1,-299,-17)" stroke-linecap="butt">
      <rect fill="none" x="482.7561" width="86.9679" height="40" y="32.04" clip-path="url(#clipPath2)"/>
      <text x="493.8698" xml:space="preserve" y="56.6934" clip-path="url(#clipPath2)" font-family="sans-serif" stroke="none">libphiola.so</text>
    </g>
    <g fill="white" text-rendering="geometricPrecision" shape-rendering="geometricPrecision" transform="matrix(1,0,0,1,-299,-17)" stroke="white">
      <rect x="324.2944" width="95.4113" height="40" y="86.52" clip-path="url(#clipPath2)" stroke="none"/>
    </g>
    <g text-rendering="geometricPrecision" stroke-miterlimit="1.45" shape-rendering="geometricPrecision" transform="matrix(1,0,0,1,-299,-17)" stroke-linecap="butt">
      <rect fill="none" x="324.2944" width="95.4113" height="40" y="86.52" clip-path="url(#clipPath2)"/>
      <text x="329.5673" xml:space="preserve" y="111.1734" clip-path="url(#clipPath2)" font-family="sans-serif" stroke="none">ConvertActivity</text>
    </g>
    <g fill="white" text-rendering="geometricPrecision" shape-rendering="geometricPrecision" transform="matrix(1,0,0,1,-299,-17)" stroke="white">
      <rect x="324.2944" width="95.4113" height="40" y="32.04" clip-path="url(#clipPath2)" stroke="none"/>
    </g>
    <g text-rendering="geometricPrecision" stroke-miterlimit="1.45" shape-rendering="geometricPrecision" transform="matrix(1,0,0,1,-299,-17)" stroke-linecap="butt">
      <rect fill="none" x="324.2944" width="95.4113" height="40" y="32.04" clip-path="url(#clipPath2)"/>
      <text x="328.9437" xml:space="preserve" y="56.6934" clip-path="url(#clipPath2)" font-family="sans-serif" stroke="none">SettingsActivity</text>
    </g>
    <g stroke-linecap="butt" transform="matrix(1,0,0,1,-299,-17)" fill="gray" text-rendering="geometricPrecision" shape-rendering="geometricPrecision" stroke="gray" stroke-miterlimit="1.45">
      <path fill="none" d="M413.2952 152.5 L490.6983 152.5" clip-path="url(#clipPath2)"/>
    </g>
    <g stroke-linecap="butt" transform="matrix(1,0,0,1,-299,-17)" fill="gray" text-rendering="geometricPrecision" shape-rendering="geometricPrecision" stroke="gray" stroke-miterlimit="1.45">
      <path d="M498.6983 152.5 L486.6983 147.5 L489.6983 152.5 L486.6983 157.5 Z" stroke="none" clip-path="url(#clipPath2)"/>
      <text x="420.2952" y="143.0734" clip-path="url(#clipPath2)" fill="black" font-family="sans-serif" stroke="none" xml:space="preserve">play()</text>
      <path fill="none" d="M553.74 161 L603.5123 161" clip-path="url(#clipPath2)" stroke="rgb(0,170,0)"/>
      <path fill="rgb(0,170,0)" d="M611.5123 161 L599.5123 156 L602.5123 161 L599.5123 166 Z" clip-path="url(#clipPath2)" stroke="none"/>
      <text x="560.74" y="153.8059" clip-path="url(#clipPath2)" fill="black" font-family="sans-serif" stroke="none" xml:space="preserve">start()</text>
      <path fill="none" d="M408.4134 181 L408.4134 191 L617.2004 191 L617.2004 189" clip-path="url(#clipPath2)" stroke="rgb(0,170,0)"/>
      <path fill="rgb(0,170,0)" d="M617.2004 181 L612.2004 193 L617.2004 190 L622.2004 193 Z" clip-path="url(#clipPath2)" stroke="none"/>
      <path fill="none" d="M627.8405 181 L627.8405 280.2138" clip-path="url(#clipPath2)" stroke="rgb(51,102,255)"/>
      <path fill="rgb(51,102,255)" d="M627.8405 288.2138 L632.8405 276.2138 L627.8405 279.2138 L622.8405 276.2138 Z" clip-path="url(#clipPath2)" stroke="none"/>
      <text x="583.5984" y="197.3384" clip-path="url(#clipPath2)" fill="black" font-family="sans-serif" stroke="none" xml:space="preserve">open()</text>
      <text x="576.2044" y="213.6734" clip-path="url(#clipPath2)" fill="black" font-family="sans-serif" stroke="none" xml:space="preserve">process()</text>
      <text x="583.6943" y="230.0085" clip-path="url(#clipPath2)" fill="black" font-family="sans-serif" stroke="none" xml:space="preserve">close()</text>
      <path fill="none" d="M611.504 299.74 L536.74 299.74 L513.99 276.99 L513.99 189" clip-path="url(#clipPath2)" stroke="rgb(51,102,255)"/>
      <path fill="rgb(51,102,255)" d="M513.99 181 L508.99 193 L513.99 190 L518.99 193 Z" clip-path="url(#clipPath2)" stroke="none"/>
      <path fill="none" d="M622.5204 288.2119 L622.5204 259.5205 L611.04 248.04 L408.04 248.04 L388.4849 228.4848 L388.4849 189" clip-path="url(#clipPath2)" stroke="rgb(51,102,255)"/>
      <path fill="rgb(51,102,255)" d="M388.4849 181 L383.4849 193 L388.4849 190 L393.4849 193 Z" clip-path="url(#clipPath2)" stroke="none"/>
      <path fill="none" d="M652.1071 288.1905 L652.1071 262.8929 L661.88 253.12 L785.12 253.12 L795.5206 263.5206 L795.5206 280.1917" clip-path="url(#clipPath2)" stroke="rgb(51,102,255)"/>
      <path fill="rgb(51,102,255)" d="M795.5206 288.1917 L800.5206 276.1917 L795.5206 279.1917 L790.5206 276.1917 Z" clip-path="url(#clipPath2)" stroke="none"/>
      <path fill="none" d="M820.4866 288.2144 L820.4866 183.4866 L798 161 L674.5405 161" clip-path="url(#clipPath2)" stroke="rgb(0,170,0)"/>
      <path fill="rgb(0,170,0)" d="M666.5405 161 L678.5405 166 L675.5405 161 L678.5405 156 Z" clip-path="url(#clipPath2)" stroke="none"/>
      <path fill="none" d="M808.0036 288.2085 L808.0036 256.0036 L794.96 242.96 L556.96 242.96 L538.49 224.49 L538.49 189" clip-path="url(#clipPath2)"/>
      <path d="M538.49 181 L533.49 193 L538.49 190 L543.49 193 Z" clip-path="url(#clipPath2)" stroke="none"/>
      <path fill="none" d="M666.5405 308.24 L691.4628 308.24" clip-path="url(#clipPath2)" stroke="rgb(51,102,255)"/>
      <path fill="rgb(51,102,255)" d="M699.4628 308.24 L687.4628 303.24 L690.4628 308.24 L687.4628 313.24 Z" clip-path="url(#clipPath2)" stroke="none"/>
      <path fill="none" d="M726.9951 288.192 L726.9951 189.995 L709.3333 172.3333 L674.5405 172.3333" clip-path="url(#clipPath2)" stroke="rgb(0,170,0)"/>
      <path fill="rgb(0,170,0)" d="M666.5405 172.3333 L678.5405 177.3333 L675.5405 172.3333 L678.5405 167.3333 Z" clip-path="url(#clipPath2)" stroke="none"/>
      <path fill="none" d="M645.5738 288.2088 L645.5738 224.4262 L668.272 201.728 L906.272 201.728 L915.7571 192.2429 L915.7571 178.2429 L924.59 169.41 L942.4055 169.41" clip-path="url(#clipPath2)" stroke="rgb(51,102,255)"/>
      <path fill="rgb(51,102,255)" d="M950.4055 169.41 L938.4055 164.41 L941.4055 169.41 L938.4055 174.41 Z" clip-path="url(#clipPath2)" stroke="none"/>
      <text x="907.4371" y="162.5901" clip-path="url(#clipPath2)" fill="black" font-family="sans-serif" stroke="none" xml:space="preserve">open()</text>
      <path fill="none" d="M1016.2902 160.94 L1153.9399 160.94 L1176.2543 183.2543 L1176.2543 434.7283" clip-path="url(#clipPath2)"/>
      <path d="M1176.2543 442.7283 L1181.2543 430.7283 L1176.2543 433.7283 L1171.2543 430.7283 Z" clip-path="url(#clipPath2)" stroke="none"/>
      <text x="1023.2902" y="150.8734" clip-path="url(#clipPath2)" fill="black" font-family="sans-serif" stroke="none" xml:space="preserve">start()</text>
      <path fill="none" d="M950.3958 152.47 L886.9897 152.47" clip-path="url(#clipPath2)"/>
      <path d="M878.9897 152.47 L890.9897 157.47 L887.9897 152.47 L890.9897 147.47 Z" clip-path="url(#clipPath2)" stroke="none"/>
      <path fill="none" d="M840.5919 149.6667 L674.5405 149.6667" clip-path="url(#clipPath2)" stroke="rgb(0,170,0)"/>
      <path fill="rgb(0,170,0)" d="M666.5405 149.6667 L678.5405 154.6667 L675.5405 149.6667 L678.5405 144.6667 Z" clip-path="url(#clipPath2)" stroke="none"/>
      <text x="782.5461" y="143.4401" clip-path="url(#clipPath2)" fill="black" font-family="sans-serif" stroke="none" xml:space="preserve">update()</text>
      <path fill="none" d="M1135.7704 442.7341 L1135.7704 230.7704 L1112.9399 207.94 L1024.2902 207.94" clip-path="url(#clipPath2)"/>
      <path d="M1016.2902 207.94 L1028.2902 212.94 L1025.2902 207.94 L1028.2902 202.94 Z" clip-path="url(#clipPath2)" stroke="none"/>
      <text x="1020.0646" y="198.2865" clip-path="url(#clipPath2)" fill="black" font-family="sans-serif" stroke="none" xml:space="preserve">on_complete()</text>
      <path fill="none" d="M950.3937 217.1627 L647.1627 217.1627 L636.7072 206.7071 L636.7072 189" clip-path="url(#clipPath2)" stroke="rgb(0,170,0)"/>
      <path fill="rgb(0,170,0)" d="M636.7072 181 L631.7072 193 L636.7072 190 L641.7072 193 Z" clip-path="url(#clipPath2)" stroke="none"/>
      <text x="907.8561" y="213.5761" clip-path="url(#clipPath2)" fill="black" font-family="sans-serif" stroke="none" xml:space="preserve">close()</text>
      <path fill="none" d="M404.6499 181 L404.6499 283.8529" clip-path="url(#clipPath2)"/>
      <path d="M404.6499 291.8529 L409.6499 279.8529 L404.6499 282.8529 L399.6499 279.8529 Z" clip-path="url(#clipPath2)" stroke="none"/>
      <path fill="none" d="M813.7787 328.24 L813.7787 371.1103" clip-path="url(#clipPath2)"/>
      <path d="M813.7787 379.1103 L818.7787 367.1103 L813.7787 370.1103 L808.7787 367.1103 Z" clip-path="url(#clipPath2)" stroke="none"/>
      <path fill="none" d="M834.5659 328.24 L834.5659 410.5659 L856.76 432.76 L918.76 432.76 L924.892 438.892 L924.892 446.8887" clip-path="url(#clipPath2)"/>
      <path d="M924.892 454.8887 L929.892 442.8887 L924.892 445.8887 L919.892 442.8887 Z" clip-path="url(#clipPath2)" stroke="none"/>
      <path fill="none" d="M837.5659 328.24 L837.5659 381.5659 L855.16 399.16 L890.1245 399.16" clip-path="url(#clipPath2)"/>
      <path d="M898.1245 399.16 L886.1245 394.16 L889.1245 399.16 L886.1245 404.16 Z" clip-path="url(#clipPath2)" stroke="none"/>
      <path fill="none" d="M946.1993 419.16 L946.1993 446.8851" clip-path="url(#clipPath2)"/>
      <path d="M946.1993 454.8851 L951.1993 442.8851 L946.1993 445.8851 L941.1993 442.8851 Z" clip-path="url(#clipPath2)" stroke="none"/>
      <path fill="none" d="M959.853 462.76 L974.8271 462.76" clip-path="url(#clipPath2)"/>
      <path d="M982.8271 462.76 L970.8271 457.76 L973.8271 462.76 L970.8271 467.76 Z" clip-path="url(#clipPath2)" stroke="none"/>
      <path fill="none" d="M1039.0527 442.7327 L1039.0527 331.0527 L1016.24 308.24 L850.0134 308.24" clip-path="url(#clipPath2)"/>
      <path d="M842.0134 308.24 L854.0134 313.24 L851.0134 308.24 L854.0134 303.24 Z" clip-path="url(#clipPath2)" stroke="none"/>
      <path fill="none" d="M768.0197 419.16 L768.0197 446.8851" clip-path="url(#clipPath2)"/>
      <path d="M768.0197 454.8851 L773.0197 442.8851 L768.0197 445.8851 L763.0197 442.8851 Z" clip-path="url(#clipPath2)" stroke="none"/>
      <path fill="none" d="M831.5659 328.24 L831.5659 418.4341 L820.24 429.76 L796.24 429.76 L789.327 436.673 L789.327 446.8844" clip-path="url(#clipPath2)"/>
      <path d="M789.327 454.8844 L794.327 442.8844 L789.327 445.8844 L784.327 442.8844 Z" clip-path="url(#clipPath2)" stroke="none"/>
      <path fill="none" d="M802.9807 462.76 L821.9972 462.76" clip-path="url(#clipPath2)"/>
      <path d="M829.9972 462.76 L817.9972 457.76 L820.9972 462.76 L817.9972 467.76 Z" clip-path="url(#clipPath2)" stroke="none"/>
      <path fill="none" d="M416.8999 331.88 L416.8999 434.7329" clip-path="url(#clipPath2)"/>
      <path d="M416.8999 442.7329 L421.8999 430.7329 L416.8999 433.7329 L411.8999 430.7329 Z" clip-path="url(#clipPath2)" stroke="none"/>
      <text x="381.6767" y="375.6384" clip-path="url(#clipPath2)" fill="black" font-family="sans-serif" stroke="none" xml:space="preserve">next()</text>
      <text x="381.2629" y="391.9734" clip-path="url(#clipPath2)" fill="black" font-family="sans-serif" stroke="none" xml:space="preserve">seek()</text>
      <text x="392.8785" y="408.3085" clip-path="url(#clipPath2)" fill="black" font-family="sans-serif" stroke="none" xml:space="preserve">...</text>
      <path fill="none" d="M427.718 482.76 L427.718 534.718 L449.36 556.36 L1008.64 556.36 L1030.1998 534.8001 L1030.1998 490.76" clip-path="url(#clipPath2)"/>
      <path d="M1030.1998 482.76 L1025.1998 494.76 L1030.1998 491.76 L1035.1998 494.76 Z" clip-path="url(#clipPath2)" stroke="none"/>
      <path fill="none" d="M557.6833 462.76 L491.5239 462.76" clip-path="url(#clipPath2)"/>
      <path d="M483.5239 462.76 L495.5239 467.76 L492.5239 462.76 L495.5239 457.76 Z" clip-path="url(#clipPath2)" stroke="none"/>
      <path fill="none" d="M441.3999 331.88 L441.3999 379.3999 L461.16 399.16 L576.111 399.16" clip-path="url(#clipPath2)"/>
      <path d="M584.111 399.16 L572.111 394.16 L575.111 399.16 L572.111 404.16 Z" clip-path="url(#clipPath2)" stroke="none"/>
      <path fill="none" d="M807.1832 328.24 L807.1832 350.8167 L797.9333 360.0667 L614.9333 360.0667 L606.2409 368.7591 L606.2409 383.2759" clip-path="url(#clipPath2)"/>
      <path d="M606.2409 391.2759 L611.2409 379.2759 L606.2409 382.2759 L601.2409 379.2759 Z" clip-path="url(#clipPath2)" stroke="none"/>
      <path fill="none" d="M607.1942 407 L607.1942 434.7251" clip-path="url(#clipPath2)"/>
      <path d="M607.1942 442.7251 L612.1942 430.7251 L607.1942 433.7251 L602.1942 430.7251 Z" clip-path="url(#clipPath2)" stroke="none"/>
      <path fill="none" d="M721.0765 328.24 L721.0765 498.3165" clip-path="url(#clipPath2)"/>
      <path d="M721.0765 506.3165 L726.0765 494.3165 L721.0765 497.3165 L716.0765 494.3165 Z" clip-path="url(#clipPath2)" stroke="none"/>
      <path fill="none" d="M708.6888 328.24 L708.6888 451.3112 L697.24 462.76 L681.24 462.76 L669.5687 474.4313 L669.5687 498.3288" clip-path="url(#clipPath2)"/>
      <path d="M669.5687 506.3288 L674.5687 494.3288 L669.5687 497.3288 L664.5687 494.3288 Z" clip-path="url(#clipPath2)" stroke="none"/>
      <path fill="none" d="M357.3532 181 L357.3532 213.8401" clip-path="url(#clipPath2)"/>
      <path d="M357.3532 221.8401 L362.3532 209.8401 L357.3532 212.8401 L352.3532 209.8401 Z" clip-path="url(#clipPath2)" stroke="none"/>
      <path fill="none" d="M526.24 140.9707 L526.24 134" clip-path="url(#clipPath2)"/>
      <path d="M526.24 126 L521.24 138 L526.24 135 L531.24 138 Z" clip-path="url(#clipPath2)" stroke="none"/>
      <path fill="none" d="M526.24 85.9727 L526.24 80.04" clip-path="url(#clipPath2)"/>
      <path d="M526.24 72.04 L521.24 84.04 L526.24 81.04 L531.24 84.04 Z" clip-path="url(#clipPath2)" stroke="none"/>
      <path fill="none" d="M639.0405 140.9663 L639.0405 72.0405 L619.04 52.04 L577.7239 52.04" clip-path="url(#clipPath2)" stroke="rgb(0,170,0)"/>
      <path fill="rgb(0,170,0)" d="M569.7239 52.04 L581.7239 57.04 L578.7239 52.04 L581.7239 47.04 Z" clip-path="url(#clipPath2)" stroke="none"/>
      <path fill="none" d="M372 140.9717 L372 134.52" clip-path="url(#clipPath2)"/>
      <path d="M372 126.52 L367 138.52 L372 135.52 L377 138.52 Z" clip-path="url(#clipPath2)" stroke="none"/>
      <path fill="none" d="M419.7056 106.52 L442.48 106.52 L451.2308 97.7692 L451.2308 69.7692 L460.46 60.54 L474.7125 60.54" clip-path="url(#clipPath2)"/>
      <path d="M482.7125 60.54 L470.7125 55.54 L473.7125 60.54 L470.7125 65.54 Z" clip-path="url(#clipPath2)" stroke="none"/>
      <path fill="none" d="M330.6591 161 L319 161 L314.2944 156.2944 L314.2944 52.04 L316.2553 52.04" clip-path="url(#clipPath2)"/>
      <path d="M324.2553 52.04 L312.2553 47.04 L315.2553 52.04 L312.2553 57.04 Z" clip-path="url(#clipPath2)" stroke="none"/>
      <path fill="none" d="M419.7056 43.54 L474.7253 43.54" clip-path="url(#clipPath2)"/>
      <path d="M482.7253 43.54 L470.7253 38.54 L473.7253 43.54 L470.7253 48.54 Z" clip-path="url(#clipPath2)" stroke="none"/>
    </g>
  </g>
</svg>
